<svg width="32" height="32" viewBox="0 0 32 32" fill="none" xmlns="http://www.w3.org/2000/svg">
<rect width="32" height="32" rx="16" fill="#3465ED"/>
<path d="M9.15873 23.3171V24H8.4758V23.3171H9.15873ZM9.15873 22.6341V23.3171H8.4758V22.6341H9.15873ZM9.15873 21.9512V22.6341H8.4758V21.9512H9.15873ZM9.15873 21.2683V21.9512H8.4758V21.2683H9.15873ZM9.15873 20.5854V21.2683H8.4758V20.5854H9.15873ZM9.15873 19.9024V20.5854H8.4758V19.9024H9.15873ZM9.15873 19.2195V19.9024H8.4758V19.2195H9.15873ZM9.15873 18.5366V19.2195H8.4758V18.5366H9.15873ZM9.15873 17.8537V18.5366H8.4758V17.8537H9.15873ZM9.15873 17.1707V17.8537H8.4758V17.1707H9.15873ZM9.15873 16.4878V17.1707H8.4758V16.4878H9.15873ZM9.15873 15.8049V16.4878H8.4758V15.8049H9.15873ZM9.15873 15.122V15.8049H8.4758V15.122H9.15873ZM9.15873 14.439V15.122H8.4758V14.439H9.15873ZM9.15873 13.7561V14.439H8.4758V13.7561H9.15873ZM9.84165 13.7561V14.439H9.15873V13.7561H9.84165ZM9.84165 14.439V15.122H9.15873V14.439H9.84165ZM9.84165 15.122V15.8049H9.15873V15.122H9.84165ZM9.84165 15.8049V16.4878H9.15873V15.8049H9.84165ZM9.84165 16.4878V17.1707H9.15873V16.4878H9.84165ZM9.84165 17.1707V17.8537H9.15873V17.1707H9.84165ZM9.84165 17.8537V18.5366H9.15873V17.8537H9.84165ZM10.5246 18.5366V19.2195H9.84165V18.5366H10.5246ZM10.5246 19.2195V19.9024H9.84165V19.2195H10.5246ZM10.5246 19.9024V20.5854H9.84165V19.9024H10.5246ZM10.5246 20.5854V21.2683H9.84165V20.5854H10.5246ZM10.5246 21.2683V21.9512H9.84165V21.2683H10.5246ZM10.5246 21.9512V22.6341H9.84165V21.9512H10.5246ZM10.5246 22.6341V23.3171H9.84165V22.6341H10.5246ZM10.5246 23.3171V24H9.84165V23.3171H10.5246ZM11.2075 23.3171V24H10.5246V23.3171H11.2075ZM11.8904 23.3171V24H11.2075V23.3171H11.8904ZM11.8904 22.6341V23.3171H11.2075V22.6341H11.8904ZM11.8904 21.9512V22.6341H11.2075V21.9512H11.8904ZM11.8904 21.2683V21.9512H11.2075V21.2683H11.8904ZM11.8904 20.5854V21.2683H11.2075V20.5854H11.8904ZM11.8904 19.9024V20.5854H11.2075V19.9024H11.8904ZM11.8904 19.2195V19.9024H11.2075V19.2195H11.8904ZM11.8904 18.5366V19.2195H11.2075V18.5366H11.8904ZM11.2075 18.5366V19.2195H10.5246V18.5366H11.2075ZM11.2075 17.8537V18.5366H10.5246V17.8537H11.2075ZM11.2075 19.2195V19.9024H10.5246V19.2195H11.2075ZM11.2075 19.9024V20.5854H10.5246V19.9024H11.2075ZM11.2075 20.5854V21.2683H10.5246V20.5854H11.2075ZM11.2075 21.2683V21.9512H10.5246V21.2683H11.2075ZM11.2075 21.9512V22.6341H10.5246V21.9512H11.2075ZM11.2075 22.6341V23.3171H10.5246V22.6341H11.2075ZM9.84165 23.3171V24H9.15873V23.3171H9.84165ZM9.84165 22.6341V23.3171H9.15873V22.6341H9.84165ZM9.84165 21.9512V22.6341H9.15873V21.9512H9.84165ZM9.84165 21.2683V21.9512H9.15873V21.2683H9.84165ZM9.84165 20.5854V21.2683H9.15873V20.5854H9.84165ZM9.84165 19.9024V20.5854H9.15873V19.9024H9.84165ZM9.84165 19.2195V19.9024H9.15873V19.2195H9.84165ZM9.84165 18.5366V19.2195H9.15873V18.5366H9.84165ZM9.15873 6.92683V7.60976H8.4758V6.92683H9.15873ZM9.15873 7.60976V8.29268H8.4758V7.60976H9.15873ZM9.15873 8.29268V8.97561H8.4758V8.29268H9.15873ZM9.15873 8.97561V9.65854H8.4758V8.97561H9.15873ZM9.15873 9.65854V10.3415H8.4758V9.65854H9.15873ZM9.15873 10.3415V11.0244H8.4758V10.3415H9.15873ZM9.15873 11.0244V11.7073H8.4758V11.0244H9.15873ZM9.15873 11.7073V12.3902H8.4758V11.7073H9.15873ZM9.15873 12.3902V13.0732H8.4758V12.3902H9.15873ZM9.15873 13.0732V13.7561H8.4758V13.0732H9.15873ZM11.2075 6.92683V7.60976H10.5246V6.92683H11.2075ZM11.2075 7.60976V8.29268H10.5246V7.60976H11.2075ZM11.2075 8.29268V8.97561H10.5246V8.29268H11.2075ZM11.2075 8.97561V9.65854H10.5246V8.97561H11.2075ZM11.2075 9.65854V10.3415H10.5246V9.65854H11.2075ZM11.2075 10.3415V11.0244H10.5246V10.3415H11.2075ZM11.2075 11.7073V12.3902H10.5246V11.7073H11.2075ZM11.2075 12.3902V13.0732H10.5246V12.3902H11.2075ZM11.2075 13.0732V13.7561H10.5246V13.0732H11.2075ZM11.2075 13.7561V14.439H10.5246V13.7561H11.2075ZM11.2075 14.439V15.122H10.5246V14.439H11.2075ZM11.2075 15.122V15.8049H10.5246V15.122H11.2075ZM11.2075 15.8049V16.4878H10.5246V15.8049H11.2075ZM11.8904 16.4878V17.1707H11.2075V16.4878H11.8904ZM11.8904 17.1707V17.8537H11.2075V17.1707H11.8904ZM11.8904 17.8537V18.5366H11.2075V17.8537H11.8904ZM11.8904 15.8049V16.4878H11.2075V15.8049H11.8904ZM11.8904 15.122V15.8049H11.2075V15.122H11.8904ZM11.8904 14.439V15.122H11.2075V14.439H11.8904ZM11.8904 13.7561V14.439H11.2075V13.7561H11.8904ZM11.8904 13.0732V13.7561H11.2075V13.0732H11.8904ZM11.8904 12.3902V13.0732H11.2075V12.3902H11.8904ZM11.8904 11.7073V12.3902H11.2075V11.7073H11.8904ZM11.8904 11.0244V11.7073H11.2075V11.0244H11.8904ZM11.8904 10.3415V11.0244H11.2075V10.3415H11.8904ZM11.8904 9.65854V10.3415H11.2075V9.65854H11.8904ZM11.2075 11.0244V11.7073H10.5246V11.0244H11.2075ZM11.8904 8.97561V9.65854H11.2075V8.97561H11.8904ZM11.8904 8.29268V8.97561H11.2075V8.29268H11.8904ZM11.8904 7.60976V8.29268H11.2075V7.60976H11.8904ZM11.8904 6.92683V7.60976H11.2075V6.92683H11.8904ZM10.5246 6.92683V7.60976H9.84165V6.92683H10.5246ZM9.84165 6.92683V7.60976H9.15873V6.92683H9.84165ZM9.84165 7.60976V8.29268H9.15873V7.60976H9.84165ZM10.5246 7.60976V8.29268H9.84165V7.60976H10.5246ZM10.5246 8.29268V8.97561H9.84165V8.29268H10.5246ZM10.5246 8.97561V9.65854H9.84165V8.97561H10.5246ZM10.5246 9.65854V10.3415H9.84165V9.65854H10.5246ZM10.5246 10.3415V11.0244H9.84165V10.3415H10.5246ZM10.5246 11.0244V11.7073H9.84165V11.0244H10.5246ZM10.5246 11.7073V12.3902H9.84165V11.7073H10.5246ZM9.84165 12.3902V13.0732H9.15873V12.3902H9.84165ZM9.84165 13.0732V13.7561H9.15873V13.0732H9.84165ZM9.84165 11.7073V12.3902H9.15873V11.7073H9.84165ZM9.84165 11.0244V11.7073H9.15873V11.0244H9.84165ZM9.84165 10.3415V11.0244H9.15873V10.3415H9.84165ZM9.84165 9.65854V10.3415H9.15873V9.65854H9.84165ZM9.84165 8.97561V9.65854H9.15873V8.97561H9.84165ZM9.84165 8.29268V8.97561H9.15873V8.29268H9.84165ZM10.5246 12.3902V13.0732H9.84165V12.3902H10.5246ZM10.5246 13.0732V13.7561H9.84165V13.0732H10.5246ZM10.5246 13.7561V14.439H9.84165V13.7561H10.5246ZM10.5246 14.439V15.122H9.84165V14.439H10.5246ZM10.5246 15.122V15.8049H9.84165V15.122H10.5246ZM10.5246 15.8049V16.4878H9.84165V15.8049H10.5246ZM10.5246 16.4878V17.1707H9.84165V16.4878H10.5246ZM10.5246 17.1707V17.8537H9.84165V17.1707H10.5246ZM10.5246 17.8537V18.5366H9.84165V17.8537H10.5246ZM11.2075 17.1707V17.8537H10.5246V17.1707H11.2075ZM11.2075 16.4878V17.1707H10.5246V16.4878H11.2075ZM8.4758 6.92683V7.60976H7.79287V6.92683H8.4758ZM7.79287 6.92683V7.60976H7.10995V6.92683H7.79287ZM7.10995 6.92683V7.60976H6.42702V6.92683H7.10995ZM6.42702 6.92683V7.60976H5.74409V6.92683H6.42702ZM5.74409 6.92683V7.60976H5.06117V6.92683H5.74409ZM5.74409 7.60976V8.29268H5.06117V7.60976H5.74409ZM5.74409 8.29268V8.97561H5.06117V8.29268H5.74409ZM6.42702 7.60976V8.29268H5.74409V7.60976H6.42702ZM7.10995 7.60976V8.29268H6.42702V7.60976H7.10995ZM7.79287 7.60976V8.29268H7.10995V7.60976H7.79287ZM8.4758 8.29268V8.97561H7.79287V8.29268H8.4758ZM8.4758 7.60976V8.29268H7.79287V7.60976H8.4758ZM7.79287 8.29268V8.97561H7.10995V8.29268H7.79287ZM7.10995 8.29268V8.97561H6.42702V8.29268H7.10995ZM6.42702 8.29268V8.97561H5.74409V8.29268H6.42702ZM12.5734 6.92683V7.60976H11.8904V6.92683H12.5734ZM13.2563 6.92683V7.60976H12.5734V6.92683H13.2563ZM13.9392 6.92683V7.60976H13.2563V6.92683H13.9392ZM14.6221 6.92683V7.60976H13.9392V6.92683H14.6221ZM15.3051 6.92683V7.60976H14.6221V6.92683H15.3051ZM15.3051 7.60976V8.29268H14.6221V7.60976H15.3051ZM14.6221 7.60976V8.29268H13.9392V7.60976H14.6221ZM13.9392 7.60976V8.29268H13.2563V7.60976H13.9392ZM13.2563 7.60976V8.29268H12.5734V7.60976H13.2563ZM12.5734 7.60976V8.29268H11.8904V7.60976H12.5734ZM12.5734 8.29268V8.97561H11.8904V8.29268H12.5734ZM13.2563 8.29268V8.97561H12.5734V8.29268H13.2563ZM13.9392 8.29268V8.97561H13.2563V8.29268H13.9392ZM14.6221 8.29268V8.97561H13.9392V8.29268H14.6221ZM15.3051 8.29268V8.97561H14.6221V8.29268H15.3051ZM5.74409 8.97561V9.65854H5.06117V8.97561H5.74409ZM5.74409 9.65854V10.3415H5.06117V9.65854H5.74409ZM6.42702 9.65854V10.3415H5.74409V9.65854H6.42702ZM7.10995 9.65854V10.3415H6.42702V9.65854H7.10995ZM7.79287 9.65854V10.3415H7.10995V9.65854H7.79287ZM8.4758 9.65854V10.3415H7.79287V9.65854H8.4758ZM8.4758 8.97561V9.65854H7.79287V8.97561H8.4758ZM7.79287 8.97561V9.65854H7.10995V8.97561H7.79287ZM7.10995 8.97561V9.65854H6.42702V8.97561H7.10995ZM6.42702 8.97561V9.65854H5.74409V8.97561H6.42702ZM15.3051 8.97561V9.65854H14.6221V8.97561H15.3051ZM15.3051 9.65854V10.3415H14.6221V9.65854H15.3051ZM14.6221 9.65854V10.3415H13.9392V9.65854H14.6221ZM13.9392 9.65854V10.3415H13.2563V9.65854H13.9392ZM13.2563 9.65854V10.3415H12.5734V9.65854H13.2563ZM12.5734 9.65854V10.3415H11.8904V9.65854H12.5734ZM12.5734 8.97561V9.65854H11.8904V8.97561H12.5734ZM13.2563 8.97561V9.65854H12.5734V8.97561H13.2563ZM13.9392 8.97561V9.65854H13.2563V8.97561H13.9392ZM14.6221 8.97561V9.65854H13.9392V8.97561H14.6221ZM18.7324 23.3171V24H18.0494V23.3171H18.7324ZM18.7324 22.6341V23.3171H18.0494V22.6341H18.7324ZM18.7324 21.9512V22.6341H18.0494V21.9512H18.7324ZM18.7324 21.2683V21.9512H18.0494V21.2683H18.7324ZM18.7324 20.5854V21.2683H18.0494V20.5854H18.7324ZM18.7324 19.9024V20.5854H18.0494V19.9024H18.7324ZM18.7324 19.2195V19.9024H18.0494V19.2195H18.7324ZM18.7324 18.5366V19.2195H18.0494V18.5366H18.7324ZM18.7324 17.8537V18.5366H18.0494V17.8537H18.7324ZM18.7324 17.1707V17.8537H18.0494V17.1707H18.7324ZM18.7324 16.4878V17.1707H18.0494V16.4878H18.7324ZM18.7324 15.8049V16.4878H18.0494V15.8049H18.7324ZM18.7324 15.122V15.8049H18.0494V15.122H18.7324ZM18.7324 14.439V15.122H18.0494V14.439H18.7324ZM18.7324 13.7561V14.439H18.0494V13.7561H18.7324ZM19.4153 13.7561V14.439H18.7324V13.7561H19.4153ZM19.4153 14.439V15.122H18.7324V14.439H19.4153ZM19.4153 15.122V15.8049H18.7324V15.122H19.4153ZM19.4153 15.8049V16.4878H18.7324V15.8049H19.4153ZM19.4153 16.4878V17.1707H18.7324V16.4878H19.4153ZM19.4153 17.1707V17.8537H18.7324V17.1707H19.4153ZM19.4153 17.8537V18.5366H18.7324V17.8537H19.4153ZM20.0982 18.5366V19.2195H19.4153V18.5366H20.0982ZM20.0982 19.2195V19.9024H19.4153V19.2195H20.0982ZM20.0982 19.9024V20.5854H19.4153V19.9024H20.0982ZM20.0982 20.5854V21.2683H19.4153V20.5854H20.0982ZM20.0982 21.2683V21.9512H19.4153V21.2683H20.0982ZM20.0982 21.9512V22.6341H19.4153V21.9512H20.0982ZM20.0982 22.6341V23.3171H19.4153V22.6341H20.0982ZM20.0982 23.3171V24H19.4153V23.3171H20.0982ZM20.7812 23.3171V24H20.0982V23.3171H20.7812ZM21.4641 23.3171V24H20.7812V23.3171H21.4641ZM21.4641 22.6341V23.3171H20.7812V22.6341H21.4641ZM21.4641 21.9512V22.6341H20.7812V21.9512H21.4641ZM21.4641 21.2683V21.9512H20.7812V21.2683H21.4641ZM21.4641 20.5854V21.2683H20.7812V20.5854H21.4641ZM21.4641 19.9024V20.5854H20.7812V19.9024H21.4641ZM21.4641 19.2195V19.9024H20.7812V19.2195H21.4641ZM21.4641 18.5366V19.2195H20.7812V18.5366H21.4641ZM20.7812 18.5366V19.2195H20.0982V18.5366H20.7812ZM20.7812 17.8537V18.5366H20.0982V17.8537H20.7812ZM20.7812 19.2195V19.9024H20.0982V19.2195H20.7812ZM20.7812 19.9024V20.5854H20.0982V19.9024H20.7812ZM20.7812 20.5854V21.2683H20.0982V20.5854H20.7812ZM20.7812 21.2683V21.9512H20.0982V21.2683H20.7812ZM20.7812 21.9512V22.6341H20.0982V21.9512H20.7812ZM20.7812 22.6341V23.3171H20.0982V22.6341H20.7812ZM19.4153 23.3171V24H18.7324V23.3171H19.4153ZM19.4153 22.6341V23.3171H18.7324V22.6341H19.4153ZM19.4153 21.9512V22.6341H18.7324V21.9512H19.4153ZM19.4153 21.2683V21.9512H18.7324V21.2683H19.4153ZM19.4153 20.5854V21.2683H18.7324V20.5854H19.4153ZM19.4153 19.9024V20.5854H18.7324V19.9024H19.4153ZM19.4153 19.2195V19.9024H18.7324V19.2195H19.4153ZM19.4153 18.5366V19.2195H18.7324V18.5366H19.4153ZM18.7324 6.92683V7.60976H18.0494V6.92683H18.7324ZM18.7324 7.60976V8.29268H18.0494V7.60976H18.7324ZM18.7324 8.29268V8.97561H18.0494V8.29268H18.7324ZM18.7324 8.97561V9.65854H18.0494V8.97561H18.7324ZM18.7324 9.65854V10.3415H18.0494V9.65854H18.7324ZM18.7324 10.3415V11.0244H18.0494V10.3415H18.7324ZM18.7324 11.0244V11.7073H18.0494V11.0244H18.7324ZM18.7324 11.7073V12.3902H18.0494V11.7073H18.7324ZM18.7324 12.3902V13.0732H18.0494V12.3902H18.7324ZM18.7324 13.0732V13.7561H18.0494V13.0732H18.7324ZM20.7812 6.92683V7.60976H20.0982V6.92683H20.7812ZM20.7812 7.60976V8.29268H20.0982V7.60976H20.7812ZM20.7812 8.29268V8.97561H20.0982V8.29268H20.7812ZM20.7812 8.97561V9.65854H20.0982V8.97561H20.7812ZM20.7812 9.65854V10.3415H20.0982V9.65854H20.7812ZM20.7812 10.3415V11.0244H20.0982V10.3415H20.7812ZM20.7812 11.7073V12.3902H20.0982V11.7073H20.7812ZM20.7812 12.3902V13.0732H20.0982V12.3902H20.7812ZM20.7812 13.0732V13.7561H20.0982V13.0732H20.7812ZM20.7812 13.7561V14.439H20.0982V13.7561H20.7812ZM20.7812 14.439V15.122H20.0982V14.439H20.7812ZM20.7812 15.122V15.8049H20.0982V15.122H20.7812ZM20.7812 15.8049V16.4878H20.0982V15.8049H20.7812ZM21.4641 16.4878V17.1707H20.7812V16.4878H21.4641ZM21.4641 17.1707V17.8537H20.7812V17.1707H21.4641ZM21.4641 17.8537V18.5366H20.7812V17.8537H21.4641ZM21.4641 15.8049V16.4878H20.7812V15.8049H21.4641ZM21.4641 15.122V15.8049H20.7812V15.122H21.4641ZM21.4641 14.439V15.122H20.7812V14.439H21.4641ZM21.4641 13.7561V14.439H20.7812V13.7561H21.4641ZM21.4641 13.0732V13.7561H20.7812V13.0732H21.4641ZM21.4641 12.3902V13.0732H20.7812V12.3902H21.4641ZM21.4641 11.7073V12.3902H20.7812V11.7073H21.4641ZM21.4641 11.0244V11.7073H20.7812V11.0244H21.4641ZM21.4641 10.3415V11.0244H20.7812V10.3415H21.4641ZM21.4641 9.65854V10.3415H20.7812V9.65854H21.4641ZM20.7812 11.0244V11.7073H20.0982V11.0244H20.7812ZM21.4641 8.97561V9.65854H20.7812V8.97561H21.4641ZM21.4641 8.29268V8.97561H20.7812V8.29268H21.4641ZM21.4641 7.60976V8.29268H20.7812V7.60976H21.4641ZM21.4641 6.92683V7.60976H20.7812V6.92683H21.4641ZM20.0982 6.92683V7.60976H19.4153V6.92683H20.0982ZM19.4153 6.92683V7.60976H18.7324V6.92683H19.4153ZM19.4153 7.60976V8.29268H18.7324V7.60976H19.4153ZM20.0982 7.60976V8.29268H19.4153V7.60976H20.0982ZM20.0982 8.29268V8.97561H19.4153V8.29268H20.0982ZM20.0982 8.97561V9.65854H19.4153V8.97561H20.0982ZM20.0982 9.65854V10.3415H19.4153V9.65854H20.0982ZM20.0982 10.3415V11.0244H19.4153V10.3415H20.0982ZM20.0982 11.0244V11.7073H19.4153V11.0244H20.0982ZM20.0982 11.7073V12.3902H19.4153V11.7073H20.0982ZM19.4153 12.3902V13.0732H18.7324V12.3902H19.4153ZM19.4153 13.0732V13.7561H18.7324V13.0732H19.4153ZM19.4153 11.7073V12.3902H18.7324V11.7073H19.4153ZM19.4153 11.0244V11.7073H18.7324V11.0244H19.4153ZM19.4153 10.3415V11.0244H18.7324V10.3415H19.4153ZM19.4153 9.65854V10.3415H18.7324V9.65854H19.4153ZM19.4153 8.97561V9.65854H18.7324V8.97561H19.4153ZM19.4153 8.29268V8.97561H18.7324V8.29268H19.4153ZM20.0982 12.3902V13.0732H19.4153V12.3902H20.0982ZM20.0982 13.0732V13.7561H19.4153V13.0732H20.0982ZM20.0982 13.7561V14.439H19.4153V13.7561H20.0982ZM20.0982 14.439V15.122H19.4153V14.439H20.0982ZM20.0982 15.122V15.8049H19.4153V15.122H20.0982ZM20.0982 15.8049V16.4878H19.4153V15.8049H20.0982ZM20.0982 16.4878V17.1707H19.4153V16.4878H20.0982ZM20.0982 17.1707V17.8537H19.4153V17.1707H20.0982ZM20.0982 17.8537V18.5366H19.4153V17.8537H20.0982ZM20.7812 17.1707V17.8537H20.0982V17.1707H20.7812ZM20.7812 16.4878V17.1707H20.0982V16.4878H20.7812ZM22.147 23.3171V24H21.4641V23.3171H22.147ZM22.8299 23.3171V24H22.147V23.3171H22.8299ZM22.8299 22.6341V23.3171H22.147V22.6341H22.8299ZM22.8299 21.9512V22.6341H22.147V21.9512H22.8299ZM22.8299 21.2683V21.9512H22.147V21.2683H22.8299ZM22.8299 20.5854V21.2683H22.147V20.5854H22.8299ZM22.147 20.5854V21.2683H21.4641V20.5854H22.147ZM22.147 21.2683V21.9512H21.4641V21.2683H22.147ZM22.147 21.9512V22.6341H21.4641V21.9512H22.147ZM22.147 22.6341V23.3171H21.4641V22.6341H22.147ZM23.5129 20.5854V21.2683H22.8299V20.5854H23.5129ZM24.1958 20.5854V21.2683H23.5129V20.5854H24.1958ZM24.8787 20.5854V21.2683H24.1958V20.5854H24.8787ZM24.8787 22.6341V23.3171H24.1958V22.6341H24.8787ZM24.1958 23.3171V24H23.5129V23.3171H24.1958ZM23.5129 23.3171V24H22.8299V23.3171H23.5129ZM24.8787 23.3171V24H24.1958V23.3171H24.8787ZM24.1958 22.6341V23.3171H23.5129V22.6341H24.1958ZM23.5129 22.6341V23.3171H22.8299V22.6341H23.5129ZM23.5129 21.9512V22.6341H22.8299V21.9512H23.5129ZM24.1958 21.9512V22.6341H23.5129V21.9512H24.1958ZM24.8787 21.9512V22.6341H24.1958V21.9512H24.8787ZM24.8787 21.2683V21.9512H24.1958V21.2683H24.8787ZM24.1958 21.2683V21.9512H23.5129V21.2683H24.1958ZM23.5129 21.2683V21.9512H22.8299V21.2683H23.5129ZM25.5616 23.3171V24H24.8787V23.3171H25.5616ZM26.2446 23.3171V24H25.5616V23.3171H26.2446ZM26.9275 23.3171V24H26.2446V23.3171H26.9275ZM26.9275 22.6341V23.3171H26.2446V22.6341H26.9275ZM25.5616 20.5854V21.2683H24.8787V20.5854H25.5616ZM26.2446 20.5854V21.2683H25.5616V20.5854H26.2446ZM26.9275 20.5854V21.2683H26.2446V20.5854H26.9275ZM26.9275 21.2683V21.9512H26.2446V21.2683H26.9275ZM26.9275 21.9512V22.6341H26.2446V21.9512H26.9275ZM26.2446 21.9512V22.6341H25.5616V21.9512H26.2446ZM26.2446 21.2683V21.9512H25.5616V21.2683H26.2446ZM25.5616 21.2683V21.9512H24.8787V21.2683H25.5616ZM25.5616 21.9512V22.6341H24.8787V21.9512H25.5616ZM25.5616 22.6341V23.3171H24.8787V22.6341H25.5616ZM26.2446 22.6341V23.3171H25.5616V22.6341H26.2446Z" fill="white"/>
</svg>
