<svg width="200" height="64" viewBox="0 0 200 64" fill="none" xmlns="http://www.w3.org/2000/svg">
<path d="M12.4878 49.439V51H10.9268V49.439H12.4878ZM12.4878 47.878V49.439H10.9268V47.878H12.4878ZM12.4878 46.3171V47.878H10.9268V46.3171H12.4878ZM12.4878 44.7561V46.3171H10.9268V44.7561H12.4878ZM12.4878 43.1951V44.7561H10.9268V43.1951H12.4878ZM12.4878 41.6341V43.1951H10.9268V41.6341H12.4878ZM12.4878 40.0732V41.6341H10.9268V40.0732H12.4878ZM12.4878 38.5122V40.0732H10.9268V38.5122H12.4878ZM12.4878 36.9512V38.5122H10.9268V36.9512H12.4878ZM12.4878 35.3902V36.9512H10.9268V35.3902H12.4878ZM12.4878 33.8293V35.3902H10.9268V33.8293H12.4878ZM12.4878 32.2683V33.8293H10.9268V32.2683H12.4878ZM12.4878 30.7073V32.2683H10.9268V30.7073H12.4878ZM12.4878 29.1463V30.7073H10.9268V29.1463H12.4878ZM12.4878 27.5854V29.1463H10.9268V27.5854H12.4878ZM14.0488 27.5854V29.1463H12.4878V27.5854H14.0488ZM14.0488 29.1463V30.7073H12.4878V29.1463H14.0488ZM14.0488 30.7073V32.2683H12.4878V30.7073H14.0488ZM14.0488 32.2683V33.8293H12.4878V32.2683H14.0488ZM14.0488 33.8293V35.3902H12.4878V33.8293H14.0488ZM14.0488 35.3902V36.9512H12.4878V35.3902H14.0488ZM14.0488 36.9512V38.5122H12.4878V36.9512H14.0488ZM15.6098 38.5122V40.0732H14.0488V38.5122H15.6098ZM15.6098 40.0732V41.6341H14.0488V40.0732H15.6098ZM15.6098 41.6341V43.1951H14.0488V41.6341H15.6098ZM15.6098 43.1951V44.7561H14.0488V43.1951H15.6098ZM15.6098 44.7561V46.3171H14.0488V44.7561H15.6098ZM15.6098 46.3171V47.878H14.0488V46.3171H15.6098ZM15.6098 47.878V49.439H14.0488V47.878H15.6098ZM15.6098 49.439V51H14.0488V49.439H15.6098ZM17.1707 49.439V51H15.6098V49.439H17.1707ZM18.7317 49.439V51H17.1707V49.439H18.7317ZM18.7317 47.878V49.439H17.1707V47.878H18.7317ZM18.7317 46.3171V47.878H17.1707V46.3171H18.7317ZM18.7317 44.7561V46.3171H17.1707V44.7561H18.7317ZM18.7317 43.1951V44.7561H17.1707V43.1951H18.7317ZM18.7317 41.6341V43.1951H17.1707V41.6341H18.7317ZM18.7317 40.0732V41.6341H17.1707V40.0732H18.7317ZM18.7317 38.5122V40.0732H17.1707V38.5122H18.7317ZM17.1707 38.5122V40.0732H15.6098V38.5122H17.1707ZM17.1707 36.9512V38.5122H15.6098V36.9512H17.1707ZM17.1707 40.0732V41.6341H15.6098V40.0732H17.1707ZM17.1707 41.6341V43.1951H15.6098V41.6341H17.1707ZM17.1707 43.1951V44.7561H15.6098V43.1951H17.1707ZM17.1707 44.7561V46.3171H15.6098V44.7561H17.1707ZM17.1707 46.3171V47.878H15.6098V46.3171H17.1707ZM17.1707 47.878V49.439H15.6098V47.878H17.1707ZM14.0488 49.439V51H12.4878V49.439H14.0488ZM14.0488 47.878V49.439H12.4878V47.878H14.0488ZM14.0488 46.3171V47.878H12.4878V46.3171H14.0488ZM14.0488 44.7561V46.3171H12.4878V44.7561H14.0488ZM14.0488 43.1951V44.7561H12.4878V43.1951H14.0488ZM14.0488 41.6341V43.1951H12.4878V41.6341H14.0488ZM14.0488 40.0732V41.6341H12.4878V40.0732H14.0488ZM14.0488 38.5122V40.0732H12.4878V38.5122H14.0488ZM12.4878 11.9756V13.5366H10.9268V11.9756H12.4878ZM12.4878 13.5366V15.0976H10.9268V13.5366H12.4878ZM12.4878 15.0976V16.6585H10.9268V15.0976H12.4878ZM12.4878 16.6585V18.2195H10.9268V16.6585H12.4878ZM12.4878 18.2195V19.7805H10.9268V18.2195H12.4878ZM12.4878 19.7805V21.3415H10.9268V19.7805H12.4878ZM12.4878 21.3415V22.9024H10.9268V21.3415H12.4878ZM12.4878 22.9024V24.4634H10.9268V22.9024H12.4878ZM12.4878 24.4634V26.0244H10.9268V24.4634H12.4878ZM12.4878 26.0244V27.5854H10.9268V26.0244H12.4878ZM17.1707 11.9756V13.5366H15.6098V11.9756H17.1707ZM17.1707 13.5366V15.0976H15.6098V13.5366H17.1707ZM17.1707 15.0976V16.6585H15.6098V15.0976H17.1707ZM17.1707 16.6585V18.2195H15.6098V16.6585H17.1707ZM17.1707 18.2195V19.7805H15.6098V18.2195H17.1707ZM17.1707 19.7805V21.3415H15.6098V19.7805H17.1707ZM17.1707 22.9024V24.4634H15.6098V22.9024H17.1707ZM17.1707 24.4634V26.0244H15.6098V24.4634H17.1707ZM17.1707 26.0244V27.5854H15.6098V26.0244H17.1707ZM17.1707 27.5854V29.1463H15.6098V27.5854H17.1707ZM17.1707 29.1463V30.7073H15.6098V29.1463H17.1707ZM17.1707 30.7073V32.2683H15.6098V30.7073H17.1707ZM17.1707 32.2683V33.8293H15.6098V32.2683H17.1707ZM18.7317 33.8293V35.3902H17.1707V33.8293H18.7317ZM18.7317 35.3902V36.9512H17.1707V35.3902H18.7317ZM18.7317 36.9512V38.5122H17.1707V36.9512H18.7317ZM18.7317 32.2683V33.8293H17.1707V32.2683H18.7317ZM18.7317 30.7073V32.2683H17.1707V30.7073H18.7317ZM18.7317 29.1463V30.7073H17.1707V29.1463H18.7317ZM18.7317 27.5854V29.1463H17.1707V27.5854H18.7317ZM18.7317 26.0244V27.5854H17.1707V26.0244H18.7317ZM18.7317 24.4634V26.0244H17.1707V24.4634H18.7317ZM18.7317 22.9024V24.4634H17.1707V22.9024H18.7317ZM18.7317 21.3415V22.9024H17.1707V21.3415H18.7317ZM18.7317 19.7805V21.3415H17.1707V19.7805H18.7317ZM18.7317 18.2195V19.7805H17.1707V18.2195H18.7317ZM17.1707 21.3415V22.9024H15.6098V21.3415H17.1707ZM18.7317 16.6585V18.2195H17.1707V16.6585H18.7317ZM18.7317 15.0976V16.6585H17.1707V15.0976H18.7317ZM18.7317 13.5366V15.0976H17.1707V13.5366H18.7317ZM18.7317 11.9756V13.5366H17.1707V11.9756H18.7317ZM15.6098 11.9756V13.5366H14.0488V11.9756H15.6098ZM14.0488 11.9756V13.5366H12.4878V11.9756H14.0488ZM14.0488 13.5366V15.0976H12.4878V13.5366H14.0488ZM15.6098 13.5366V15.0976H14.0488V13.5366H15.6098ZM15.6098 15.0976V16.6585H14.0488V15.0976H15.6098ZM15.6098 16.6585V18.2195H14.0488V16.6585H15.6098ZM15.6098 18.2195V19.7805H14.0488V18.2195H15.6098ZM15.6098 19.7805V21.3415H14.0488V19.7805H15.6098ZM15.6098 21.3415V22.9024H14.0488V21.3415H15.6098ZM15.6098 22.9024V24.4634H14.0488V22.9024H15.6098ZM14.0488 24.4634V26.0244H12.4878V24.4634H14.0488ZM14.0488 26.0244V27.5854H12.4878V26.0244H14.0488ZM14.0488 22.9024V24.4634H12.4878V22.9024H14.0488ZM14.0488 21.3415V22.9024H12.4878V21.3415H14.0488ZM14.0488 19.7805V21.3415H12.4878V19.7805H14.0488ZM14.0488 18.2195V19.7805H12.4878V18.2195H14.0488ZM14.0488 16.6585V18.2195H12.4878V16.6585H14.0488ZM14.0488 15.0976V16.6585H12.4878V15.0976H14.0488ZM15.6098 24.4634V26.0244H14.0488V24.4634H15.6098ZM15.6098 26.0244V27.5854H14.0488V26.0244H15.6098ZM15.6098 27.5854V29.1463H14.0488V27.5854H15.6098ZM15.6098 29.1463V30.7073H14.0488V29.1463H15.6098ZM15.6098 30.7073V32.2683H14.0488V30.7073H15.6098ZM15.6098 32.2683V33.8293H14.0488V32.2683H15.6098ZM15.6098 33.8293V35.3902H14.0488V33.8293H15.6098ZM15.6098 35.3902V36.9512H14.0488V35.3902H15.6098ZM15.6098 36.9512V38.5122H14.0488V36.9512H15.6098ZM17.1707 35.3902V36.9512H15.6098V35.3902H17.1707ZM17.1707 33.8293V35.3902H15.6098V33.8293H17.1707ZM10.9268 11.9756V13.5366H9.36585V11.9756H10.9268ZM9.36585 11.9756V13.5366H7.80488V11.9756H9.36585ZM7.80488 11.9756V13.5366H6.2439V11.9756H7.80488ZM6.2439 11.9756V13.5366H4.68293V11.9756H6.2439ZM4.68293 11.9756V13.5366H3.12195V11.9756H4.68293ZM4.68293 13.5366V15.0976H3.12195V13.5366H4.68293ZM4.68293 15.0976V16.6585H3.12195V15.0976H4.68293ZM6.2439 13.5366V15.0976H4.68293V13.5366H6.2439ZM7.80488 13.5366V15.0976H6.2439V13.5366H7.80488ZM9.36585 13.5366V15.0976H7.80488V13.5366H9.36585ZM10.9268 15.0976V16.6585H9.36585V15.0976H10.9268ZM10.9268 13.5366V15.0976H9.36585V13.5366H10.9268ZM9.36585 15.0976V16.6585H7.80488V15.0976H9.36585ZM7.80488 15.0976V16.6585H6.2439V15.0976H7.80488ZM6.2439 15.0976V16.6585H4.68293V15.0976H6.2439ZM20.2927 11.9756V13.5366H18.7317V11.9756H20.2927ZM21.8537 11.9756V13.5366H20.2927V11.9756H21.8537ZM23.4146 11.9756V13.5366H21.8537V11.9756H23.4146ZM24.9756 11.9756V13.5366H23.4146V11.9756H24.9756ZM26.5366 11.9756V13.5366H24.9756V11.9756H26.5366ZM26.5366 13.5366V15.0976H24.9756V13.5366H26.5366ZM24.9756 13.5366V15.0976H23.4146V13.5366H24.9756ZM23.4146 13.5366V15.0976H21.8537V13.5366H23.4146ZM21.8537 13.5366V15.0976H20.2927V13.5366H21.8537ZM20.2927 13.5366V15.0976H18.7317V13.5366H20.2927ZM20.2927 15.0976V16.6585H18.7317V15.0976H20.2927ZM21.8537 15.0976V16.6585H20.2927V15.0976H21.8537ZM23.4146 15.0976V16.6585H21.8537V15.0976H23.4146ZM24.9756 15.0976V16.6585H23.4146V15.0976H24.9756ZM26.5366 15.0976V16.6585H24.9756V15.0976H26.5366ZM4.68293 16.6585V18.2195H3.12195V16.6585H4.68293ZM4.68293 18.2195V19.7805H3.12195V18.2195H4.68293ZM6.2439 18.2195V19.7805H4.68293V18.2195H6.2439ZM7.80488 18.2195V19.7805H6.2439V18.2195H7.80488ZM9.36585 18.2195V19.7805H7.80488V18.2195H9.36585ZM10.9268 18.2195V19.7805H9.36585V18.2195H10.9268ZM10.9268 16.6585V18.2195H9.36585V16.6585H10.9268ZM9.36585 16.6585V18.2195H7.80488V16.6585H9.36585ZM7.80488 16.6585V18.2195H6.2439V16.6585H7.80488ZM6.2439 16.6585V18.2195H4.68293V16.6585H6.2439ZM26.5366 16.6585V18.2195H24.9756V16.6585H26.5366ZM26.5366 18.2195V19.7805H24.9756V18.2195H26.5366ZM24.9756 18.2195V19.7805H23.4146V18.2195H24.9756ZM23.4146 18.2195V19.7805H21.8537V18.2195H23.4146ZM21.8537 18.2195V19.7805H20.2927V18.2195H21.8537ZM20.2927 18.2195V19.7805H18.7317V18.2195H20.2927ZM20.2927 16.6585V18.2195H18.7317V16.6585H20.2927ZM21.8537 16.6585V18.2195H20.2927V16.6585H21.8537ZM23.4146 16.6585V18.2195H21.8537V16.6585H23.4146ZM24.9756 16.6585V18.2195H23.4146V16.6585H24.9756ZM34.3704 49.439V51H32.8095V49.439H34.3704ZM34.3704 47.878V49.439H32.8095V47.878H34.3704ZM34.3704 46.3171V47.878H32.8095V46.3171H34.3704ZM34.3704 44.7561V46.3171H32.8095V44.7561H34.3704ZM34.3704 43.1951V44.7561H32.8095V43.1951H34.3704ZM34.3704 41.6341V43.1951H32.8095V41.6341H34.3704ZM34.3704 40.0732V41.6341H32.8095V40.0732H34.3704ZM34.3704 38.5122V40.0732H32.8095V38.5122H34.3704ZM34.3704 36.9512V38.5122H32.8095V36.9512H34.3704ZM34.3704 35.3902V36.9512H32.8095V35.3902H34.3704ZM34.3704 33.8293V35.3902H32.8095V33.8293H34.3704ZM34.3704 32.2683V33.8293H32.8095V32.2683H34.3704ZM34.3704 30.7073V32.2683H32.8095V30.7073H34.3704ZM34.3704 29.1463V30.7073H32.8095V29.1463H34.3704ZM34.3704 27.5854V29.1463H32.8095V27.5854H34.3704ZM35.9314 27.5854V29.1463H34.3704V27.5854H35.9314ZM35.9314 29.1463V30.7073H34.3704V29.1463H35.9314ZM35.9314 30.7073V32.2683H34.3704V30.7073H35.9314ZM35.9314 32.2683V33.8293H34.3704V32.2683H35.9314ZM35.9314 33.8293V35.3902H34.3704V33.8293H35.9314ZM35.9314 35.3902V36.9512H34.3704V35.3902H35.9314ZM35.9314 36.9512V38.5122H34.3704V36.9512H35.9314ZM37.4924 38.5122V40.0732H35.9314V38.5122H37.4924ZM37.4924 40.0732V41.6341H35.9314V40.0732H37.4924ZM37.4924 41.6341V43.1951H35.9314V41.6341H37.4924ZM37.4924 43.1951V44.7561H35.9314V43.1951H37.4924ZM37.4924 44.7561V46.3171H35.9314V44.7561H37.4924ZM37.4924 46.3171V47.878H35.9314V46.3171H37.4924ZM37.4924 47.878V49.439H35.9314V47.878H37.4924ZM37.4924 49.439V51H35.9314V49.439H37.4924ZM39.0534 49.439V51H37.4924V49.439H39.0534ZM40.6143 49.439V51H39.0534V49.439H40.6143ZM40.6143 43.1951V44.7561H39.0534V43.1951H40.6143ZM40.6143 41.6341V43.1951H39.0534V41.6341H40.6143ZM40.6143 40.0732V41.6341H39.0534V40.0732H40.6143ZM40.6143 38.5122V40.0732H39.0534V38.5122H40.6143ZM39.0534 38.5122V40.0732H37.4924V38.5122H39.0534ZM39.0534 36.9512V38.5122H37.4924V36.9512H39.0534ZM39.0534 40.0732V41.6341H37.4924V40.0732H39.0534ZM39.0534 41.6341V43.1951H37.4924V41.6341H39.0534ZM39.0534 43.1951V44.7561H37.4924V43.1951H39.0534ZM39.0534 44.7561V46.3171H37.4924V44.7561H39.0534ZM39.0534 46.3171V47.878H37.4924V46.3171H39.0534ZM39.0534 47.878V49.439H37.4924V47.878H39.0534ZM35.9314 49.439V51H34.3704V49.439H35.9314ZM35.9314 47.878V49.439H34.3704V47.878H35.9314ZM35.9314 46.3171V47.878H34.3704V46.3171H35.9314ZM35.9314 44.7561V46.3171H34.3704V44.7561H35.9314ZM35.9314 43.1951V44.7561H34.3704V43.1951H35.9314ZM35.9314 41.6341V43.1951H34.3704V41.6341H35.9314ZM35.9314 40.0732V41.6341H34.3704V40.0732H35.9314ZM35.9314 38.5122V40.0732H34.3704V38.5122H35.9314ZM34.3704 11.9756V13.5366H32.8095V11.9756H34.3704ZM34.3704 13.5366V15.0976H32.8095V13.5366H34.3704ZM34.3704 15.0976V16.6585H32.8095V15.0976H34.3704ZM34.3704 16.6585V18.2195H32.8095V16.6585H34.3704ZM34.3704 18.2195V19.7805H32.8095V18.2195H34.3704ZM34.3704 19.7805V21.3415H32.8095V19.7805H34.3704ZM34.3704 21.3415V22.9024H32.8095V21.3415H34.3704ZM34.3704 22.9024V24.4634H32.8095V22.9024H34.3704ZM34.3704 24.4634V26.0244H32.8095V24.4634H34.3704ZM34.3704 26.0244V27.5854H32.8095V26.0244H34.3704ZM39.0534 11.9756V13.5366H37.4924V11.9756H39.0534ZM39.0534 13.5366V15.0976H37.4924V13.5366H39.0534ZM39.0534 15.0976V16.6585H37.4924V15.0976H39.0534ZM39.0534 16.6585V18.2195H37.4924V16.6585H39.0534ZM39.0534 18.2195V19.7805H37.4924V18.2195H39.0534ZM39.0534 19.7805V21.3415H37.4924V19.7805H39.0534ZM39.0534 22.9024V24.4634H37.4924V22.9024H39.0534ZM39.0534 24.4634V26.0244H37.4924V24.4634H39.0534ZM39.0534 26.0244V27.5854H37.4924V26.0244H39.0534ZM39.0534 27.5854V29.1463H37.4924V27.5854H39.0534ZM39.0534 29.1463V30.7073H37.4924V29.1463H39.0534ZM39.0534 30.7073V32.2683H37.4924V30.7073H39.0534ZM39.0534 32.2683V33.8293H37.4924V32.2683H39.0534ZM40.6143 33.8293V35.3902H39.0534V33.8293H40.6143ZM40.6143 35.3902V36.9512H39.0534V35.3902H40.6143ZM40.6143 36.9512V38.5122H39.0534V36.9512H40.6143ZM40.6143 32.2683V33.8293H39.0534V32.2683H40.6143ZM40.6143 30.7073V32.2683H39.0534V30.7073H40.6143ZM40.6143 29.1463V30.7073H39.0534V29.1463H40.6143ZM40.6143 27.5854V29.1463H39.0534V27.5854H40.6143ZM40.6143 26.0244V27.5854H39.0534V26.0244H40.6143ZM40.6143 24.4634V26.0244H39.0534V24.4634H40.6143ZM40.6143 22.9024V24.4634H39.0534V22.9024H40.6143ZM40.6143 21.3415V22.9024H39.0534V21.3415H40.6143ZM40.6143 19.7805V21.3415H39.0534V19.7805H40.6143ZM40.6143 18.2195V19.7805H39.0534V18.2195H40.6143ZM39.0534 21.3415V22.9024H37.4924V21.3415H39.0534ZM40.6143 16.6585V18.2195H39.0534V16.6585H40.6143ZM40.6143 15.0976V16.6585H39.0534V15.0976H40.6143ZM40.6143 13.5366V15.0976H39.0534V13.5366H40.6143ZM40.6143 11.9756V13.5366H39.0534V11.9756H40.6143ZM37.4924 11.9756V13.5366H35.9314V11.9756H37.4924ZM35.9314 11.9756V13.5366H34.3704V11.9756H35.9314ZM35.9314 13.5366V15.0976H34.3704V13.5366H35.9314ZM37.4924 13.5366V15.0976H35.9314V13.5366H37.4924ZM37.4924 15.0976V16.6585H35.9314V15.0976H37.4924ZM37.4924 16.6585V18.2195H35.9314V16.6585H37.4924ZM37.4924 18.2195V19.7805H35.9314V18.2195H37.4924ZM37.4924 19.7805V21.3415H35.9314V19.7805H37.4924ZM37.4924 21.3415V22.9024H35.9314V21.3415H37.4924ZM37.4924 22.9024V24.4634H35.9314V22.9024H37.4924ZM35.9314 24.4634V26.0244H34.3704V24.4634H35.9314ZM35.9314 26.0244V27.5854H34.3704V26.0244H35.9314ZM35.9314 22.9024V24.4634H34.3704V22.9024H35.9314ZM35.9314 21.3415V22.9024H34.3704V21.3415H35.9314ZM35.9314 19.7805V21.3415H34.3704V19.7805H35.9314ZM35.9314 18.2195V19.7805H34.3704V18.2195H35.9314ZM35.9314 16.6585V18.2195H34.3704V16.6585H35.9314ZM35.9314 15.0976V16.6585H34.3704V15.0976H35.9314ZM37.4924 24.4634V26.0244H35.9314V24.4634H37.4924ZM37.4924 26.0244V27.5854H35.9314V26.0244H37.4924ZM37.4924 27.5854V29.1463H35.9314V27.5854H37.4924ZM37.4924 29.1463V30.7073H35.9314V29.1463H37.4924ZM37.4924 30.7073V32.2683H35.9314V30.7073H37.4924ZM37.4924 32.2683V33.8293H35.9314V32.2683H37.4924ZM37.4924 33.8293V35.3902H35.9314V33.8293H37.4924ZM37.4924 35.3902V36.9512H35.9314V35.3902H37.4924ZM37.4924 36.9512V38.5122H35.9314V36.9512H37.4924ZM39.0534 35.3902V36.9512H37.4924V35.3902H39.0534ZM39.0534 33.8293V35.3902H37.4924V33.8293H39.0534ZM42.1753 33.8293V35.3902H40.6143V33.8293H42.1753ZM43.7363 33.8293V35.3902H42.1753V33.8293H43.7363ZM43.7363 35.3902V36.9512H42.1753V35.3902H43.7363ZM42.1753 35.3902V36.9512H40.6143V35.3902H42.1753ZM42.1753 30.7073V32.2683H40.6143V30.7073H42.1753ZM43.7363 30.7073V32.2683H42.1753V30.7073H43.7363ZM42.1753 36.9512V38.5122H40.6143V36.9512H42.1753ZM43.7363 36.9512V38.5122H42.1753V36.9512H43.7363ZM43.7363 32.2683V33.8293H42.1753V32.2683H43.7363ZM42.1753 32.2683V33.8293H40.6143V32.2683H42.1753ZM42.1753 11.9756V13.5366H40.6143V11.9756H42.1753ZM43.7363 11.9756V13.5366H42.1753V11.9756H43.7363ZM43.7363 13.5366V15.0976H42.1753V13.5366H43.7363ZM42.1753 13.5366V15.0976H40.6143V13.5366H42.1753ZM42.1753 15.0976V16.6585H40.6143V15.0976H42.1753ZM43.7363 15.0976V16.6585H42.1753V15.0976H43.7363ZM43.7363 16.6585V18.2195H42.1753V16.6585H43.7363ZM42.1753 16.6585V18.2195H40.6143V16.6585H42.1753ZM42.1753 18.2195V19.7805H40.6143V18.2195H42.1753ZM43.7363 18.2195V19.7805H42.1753V18.2195H43.7363ZM45.2973 30.7073V32.2683H43.7363V30.7073H45.2973ZM46.8582 30.7073V32.2683H45.2973V30.7073H46.8582ZM48.4192 30.7073V32.2683H46.8582V30.7073H48.4192ZM49.9802 29.1463V30.7073H48.4192V29.1463H49.9802ZM51.5412 27.5854V29.1463H49.9802V27.5854H51.5412ZM51.5412 26.0244V27.5854H49.9802V26.0244H51.5412ZM51.5412 21.3415V22.9024H49.9802V21.3415H51.5412ZM49.9802 19.7805V21.3415H48.4192V19.7805H49.9802ZM48.4192 18.2195V19.7805H46.8582V18.2195H48.4192ZM46.8582 18.2195V19.7805H45.2973V18.2195H46.8582ZM45.2973 18.2195V19.7805H43.7363V18.2195H45.2973ZM45.2973 11.9756V13.5366H43.7363V11.9756H45.2973ZM46.8582 11.9756V13.5366H45.2973V11.9756H46.8582ZM48.4192 11.9756V13.5366H46.8582V11.9756H48.4192ZM49.9802 11.9756V13.5366H48.4192V11.9756H49.9802ZM49.9802 13.5366V15.0976H48.4192V13.5366H49.9802ZM49.9802 15.0976V16.6585H48.4192V15.0976H49.9802ZM49.9802 16.6585V18.2195H48.4192V16.6585H49.9802ZM48.4192 16.6585V18.2195H46.8582V16.6585H48.4192ZM48.4192 15.0976V16.6585H46.8582V15.0976H48.4192ZM46.8582 15.0976V16.6585H45.2973V15.0976H46.8582ZM45.2973 15.0976V16.6585H43.7363V15.0976H45.2973ZM45.2973 13.5366V15.0976H43.7363V13.5366H45.2973ZM46.8582 13.5366V15.0976H45.2973V13.5366H46.8582ZM48.4192 13.5366V15.0976H46.8582V13.5366H48.4192ZM45.2973 16.6585V18.2195H43.7363V16.6585H45.2973ZM46.8582 16.6585V18.2195H45.2973V16.6585H46.8582ZM49.9802 18.2195V19.7805H48.4192V18.2195H49.9802ZM51.5412 19.7805V21.3415H49.9802V19.7805H51.5412ZM51.5412 18.2195V19.7805H49.9802V18.2195H51.5412ZM51.5412 16.6585V18.2195H49.9802V16.6585H51.5412ZM51.5412 15.0976V16.6585H49.9802V15.0976H51.5412ZM51.5412 13.5366V15.0976H49.9802V13.5366H51.5412ZM51.5412 11.9756V13.5366H49.9802V11.9756H51.5412ZM51.5412 29.1463V30.7073H49.9802V29.1463H51.5412ZM51.5412 30.7073V32.2683H49.9802V30.7073H51.5412ZM51.5412 32.2683V33.8293H49.9802V32.2683H51.5412ZM51.5412 33.8293V35.3902H49.9802V33.8293H51.5412ZM49.9802 33.8293V35.3902H48.4192V33.8293H49.9802ZM48.4192 33.8293V35.3902H46.8582V33.8293H48.4192ZM46.8582 33.8293V35.3902H45.2973V33.8293H46.8582ZM45.2973 33.8293V35.3902H43.7363V33.8293H45.2973ZM45.2973 32.2683V33.8293H43.7363V32.2683H45.2973ZM46.8582 32.2683V33.8293H45.2973V32.2683H46.8582ZM48.4192 32.2683V33.8293H46.8582V32.2683H48.4192ZM49.9802 32.2683V33.8293H48.4192V32.2683H49.9802ZM49.9802 30.7073V32.2683H48.4192V30.7073H49.9802ZM45.2973 35.3902V36.9512H43.7363V35.3902H45.2973ZM46.8582 35.3902V36.9512H45.2973V35.3902H46.8582ZM48.4192 35.3902V36.9512H46.8582V35.3902H48.4192ZM49.9802 35.3902V36.9512H48.4192V35.3902H49.9802ZM51.5412 35.3902V36.9512H49.9802V35.3902H51.5412ZM51.5412 36.9512V38.5122H49.9802V36.9512H51.5412ZM49.9802 36.9512V38.5122H48.4192V36.9512H49.9802ZM48.4192 36.9512V38.5122H46.8582V36.9512H48.4192ZM46.8582 36.9512V38.5122H45.2973V36.9512H46.8582ZM45.2973 36.9512V38.5122H43.7363V36.9512H45.2973ZM53.1021 13.5366V15.0976H51.5412V13.5366H53.1021ZM54.6631 13.5366V15.0976H53.1021V13.5366H54.6631ZM54.6631 15.0976V16.6585H53.1021V15.0976H54.6631ZM56.2241 15.0976V16.6585H54.6631V15.0976H56.2241ZM56.2241 16.6585V18.2195H54.6631V16.6585H56.2241ZM56.2241 18.2195V19.7805H54.6631V18.2195H56.2241ZM57.7851 18.2195V19.7805H56.2241V18.2195H57.7851ZM57.7851 19.7805V21.3415H56.2241V19.7805H57.7851ZM57.7851 21.3415V22.9024H56.2241V21.3415H57.7851ZM57.7851 26.0244V27.5854H56.2241V26.0244H57.7851ZM57.7851 27.5854V29.1463H56.2241V27.5854H57.7851ZM57.7851 29.1463V30.7073H56.2241V29.1463H57.7851ZM57.7851 30.7073V32.2683H56.2241V30.7073H57.7851ZM56.2241 32.2683V33.8293H54.6631V32.2683H56.2241ZM54.6631 33.8293V35.3902H53.1021V33.8293H54.6631ZM53.1021 35.3902V36.9512H51.5412V35.3902H53.1021ZM54.6631 35.3902V36.9512H53.1021V35.3902H54.6631ZM53.1021 36.9512V38.5122H51.5412V36.9512H53.1021ZM53.1021 15.0976V16.6585H51.5412V15.0976H53.1021ZM53.1021 16.6585V18.2195H51.5412V16.6585H53.1021ZM53.1021 18.2195V19.7805H51.5412V18.2195H53.1021ZM53.1021 19.7805V21.3415H51.5412V19.7805H53.1021ZM53.1021 21.3415V22.9024H51.5412V21.3415H53.1021ZM53.1021 26.0244V27.5854H51.5412V26.0244H53.1021ZM53.1021 27.5854V29.1463H51.5412V27.5854H53.1021ZM53.1021 29.1463V30.7073H51.5412V29.1463H53.1021ZM53.1021 30.7073V32.2683H51.5412V30.7073H53.1021ZM53.1021 32.2683V33.8293H51.5412V32.2683H53.1021ZM53.1021 33.8293V35.3902H51.5412V33.8293H53.1021ZM54.6631 32.2683V33.8293H53.1021V32.2683H54.6631ZM54.6631 30.7073V32.2683H53.1021V30.7073H54.6631ZM54.6631 29.1463V30.7073H53.1021V29.1463H54.6631ZM54.6631 27.5854V29.1463H53.1021V27.5854H54.6631ZM54.6631 26.0244V27.5854H53.1021V26.0244H54.6631ZM54.6631 21.3415V22.9024H53.1021V21.3415H54.6631ZM54.6631 19.7805V21.3415H53.1021V19.7805H54.6631ZM54.6631 18.2195V19.7805H53.1021V18.2195H54.6631ZM54.6631 16.6585V18.2195H53.1021V16.6585H54.6631ZM56.2241 19.7805V21.3415H54.6631V19.7805H56.2241ZM56.2241 21.3415V22.9024H54.6631V21.3415H56.2241ZM56.2241 26.0244V27.5854H54.6631V26.0244H56.2241ZM56.2241 27.5854V29.1463H54.6631V27.5854H56.2241ZM56.2241 29.1463V30.7073H54.6631V29.1463H56.2241ZM56.2241 30.7073V32.2683H54.6631V30.7073H56.2241ZM40.6143 46.3171V47.878H39.0534V46.3171H40.6143ZM40.6143 47.878V49.439H39.0534V47.878H40.6143ZM40.6143 44.7561V46.3171H39.0534V44.7561H40.6143ZM51.5412 22.9024V24.4634H49.9802V22.9024H51.5412ZM53.1021 22.9024V24.4634H51.5412V22.9024H53.1021ZM54.6631 22.9024V24.4634H53.1021V22.9024H54.6631ZM56.2241 22.9024V24.4634H54.6631V22.9024H56.2241ZM57.7851 22.9024V24.4634H56.2241V22.9024H57.7851ZM57.7851 24.4634V26.0244H56.2241V24.4634H57.7851ZM56.2241 24.4634V26.0244H54.6631V24.4634H56.2241ZM54.6631 24.4634V26.0244H53.1021V24.4634H54.6631ZM53.1021 24.4634V26.0244H51.5412V24.4634H53.1021ZM51.5412 24.4634V26.0244H49.9802V24.4634H51.5412ZM56.2241 35.3902V36.9512H54.6631V35.3902H56.2241ZM57.7851 36.9512V38.5122H56.2241V36.9512H57.7851ZM57.7851 38.5122V40.0732H56.2241V38.5122H57.7851ZM57.7851 40.0732V41.6341H56.2241V40.0732H57.7851ZM57.7851 41.6341V43.1951H56.2241V41.6341H57.7851ZM57.7851 43.1951V44.7561H56.2241V43.1951H57.7851ZM57.7851 44.7561V46.3171H56.2241V44.7561H57.7851ZM57.7851 49.439V51H56.2241V49.439H57.7851ZM57.7851 47.878V49.439H56.2241V47.878H57.7851ZM57.7851 46.3171V47.878H56.2241V46.3171H57.7851ZM56.2241 49.439V51H54.6631V49.439H56.2241ZM54.6631 49.439V51H53.1021V49.439H54.6631ZM53.1021 49.439V51H51.5412V49.439H53.1021ZM53.1021 47.878V49.439H51.5412V47.878H53.1021ZM53.1021 46.3171V47.878H51.5412V46.3171H53.1021ZM53.1021 44.7561V46.3171H51.5412V44.7561H53.1021ZM53.1021 43.1951V44.7561H51.5412V43.1951H53.1021ZM54.6631 43.1951V44.7561H53.1021V43.1951H54.6631ZM54.6631 41.6341V43.1951H53.1021V41.6341H54.6631ZM56.2241 41.6341V43.1951H54.6631V41.6341H56.2241ZM56.2241 43.1951V44.7561H54.6631V43.1951H56.2241ZM56.2241 44.7561V46.3171H54.6631V44.7561H56.2241ZM56.2241 46.3171V47.878H54.6631V46.3171H56.2241ZM56.2241 47.878V49.439H54.6631V47.878H56.2241ZM54.6631 47.878V49.439H53.1021V47.878H54.6631ZM54.6631 46.3171V47.878H53.1021V46.3171H54.6631ZM54.6631 44.7561V46.3171H53.1021V44.7561H54.6631ZM51.5412 49.439V51H49.9802V49.439H51.5412ZM51.5412 47.878V49.439H49.9802V47.878H51.5412ZM51.5412 46.3171V47.878H49.9802V46.3171H51.5412ZM51.5412 44.7561V46.3171H49.9802V44.7561H51.5412ZM51.5412 43.1951V44.7561H49.9802V43.1951H51.5412ZM51.5412 41.6341V43.1951H49.9802V41.6341H51.5412ZM51.5412 40.0732V41.6341H49.9802V40.0732H51.5412ZM51.5412 38.5122V40.0732H49.9802V38.5122H51.5412ZM53.1021 38.5122V40.0732H51.5412V38.5122H53.1021ZM54.6631 38.5122V40.0732H53.1021V38.5122H54.6631ZM56.2241 38.5122V40.0732H54.6631V38.5122H56.2241ZM56.2241 36.9512V38.5122H54.6631V36.9512H56.2241ZM54.6631 36.9512V38.5122H53.1021V36.9512H54.6631ZM54.6631 40.0732V41.6341H53.1021V40.0732H54.6631ZM53.1021 40.0732V41.6341H51.5412V40.0732H53.1021ZM53.1021 41.6341V43.1951H51.5412V41.6341H53.1021ZM56.2241 40.0732V41.6341H54.6631V40.0732H56.2241ZM65.6204 49.439V51H64.0595V49.439H65.6204ZM65.6204 47.878V49.439H64.0595V47.878H65.6204ZM65.6204 46.3171V47.878H64.0595V46.3171H65.6204ZM65.6204 44.7561V46.3171H64.0595V44.7561H65.6204ZM65.6204 43.1951V44.7561H64.0595V43.1951H65.6204ZM65.6204 41.6341V43.1951H64.0595V41.6341H65.6204ZM65.6204 40.0732V41.6341H64.0595V40.0732H65.6204ZM65.6204 38.5122V40.0732H64.0595V38.5122H65.6204ZM65.6204 36.9512V38.5122H64.0595V36.9512H65.6204ZM65.6204 35.3902V36.9512H64.0595V35.3902H65.6204ZM65.6204 33.8293V35.3902H64.0595V33.8293H65.6204ZM65.6204 32.2683V33.8293H64.0595V32.2683H65.6204ZM65.6204 30.7073V32.2683H64.0595V30.7073H65.6204ZM65.6204 29.1463V30.7073H64.0595V29.1463H65.6204ZM65.6204 27.5854V29.1463H64.0595V27.5854H65.6204ZM67.1814 27.5854V29.1463H65.6204V27.5854H67.1814ZM67.1814 29.1463V30.7073H65.6204V29.1463H67.1814ZM67.1814 30.7073V32.2683H65.6204V30.7073H67.1814ZM67.1814 32.2683V33.8293H65.6204V32.2683H67.1814ZM67.1814 33.8293V35.3902H65.6204V33.8293H67.1814ZM67.1814 35.3902V36.9512H65.6204V35.3902H67.1814ZM67.1814 36.9512V38.5122H65.6204V36.9512H67.1814ZM68.7424 38.5122V40.0732H67.1814V38.5122H68.7424ZM68.7424 40.0732V41.6341H67.1814V40.0732H68.7424ZM68.7424 41.6341V43.1951H67.1814V41.6341H68.7424ZM68.7424 43.1951V44.7561H67.1814V43.1951H68.7424ZM68.7424 44.7561V46.3171H67.1814V44.7561H68.7424ZM68.7424 46.3171V47.878H67.1814V46.3171H68.7424ZM68.7424 47.878V49.439H67.1814V47.878H68.7424ZM68.7424 49.439V51H67.1814V49.439H68.7424ZM70.3034 49.439V51H68.7424V49.439H70.3034ZM71.8643 49.439V51H70.3034V49.439H71.8643ZM71.8643 47.878V49.439H70.3034V47.878H71.8643ZM71.8643 46.3171V47.878H70.3034V46.3171H71.8643ZM71.8643 44.7561V46.3171H70.3034V44.7561H71.8643ZM71.8643 43.1951V44.7561H70.3034V43.1951H71.8643ZM71.8643 41.6341V43.1951H70.3034V41.6341H71.8643ZM71.8643 40.0732V41.6341H70.3034V40.0732H71.8643ZM71.8643 38.5122V40.0732H70.3034V38.5122H71.8643ZM70.3034 38.5122V40.0732H68.7424V38.5122H70.3034ZM70.3034 36.9512V38.5122H68.7424V36.9512H70.3034ZM70.3034 40.0732V41.6341H68.7424V40.0732H70.3034ZM70.3034 41.6341V43.1951H68.7424V41.6341H70.3034ZM70.3034 43.1951V44.7561H68.7424V43.1951H70.3034ZM70.3034 44.7561V46.3171H68.7424V44.7561H70.3034ZM70.3034 46.3171V47.878H68.7424V46.3171H70.3034ZM70.3034 47.878V49.439H68.7424V47.878H70.3034ZM67.1814 49.439V51H65.6204V49.439H67.1814ZM67.1814 47.878V49.439H65.6204V47.878H67.1814ZM67.1814 46.3171V47.878H65.6204V46.3171H67.1814ZM67.1814 44.7561V46.3171H65.6204V44.7561H67.1814ZM67.1814 43.1951V44.7561H65.6204V43.1951H67.1814ZM67.1814 41.6341V43.1951H65.6204V41.6341H67.1814ZM67.1814 40.0732V41.6341H65.6204V40.0732H67.1814ZM67.1814 38.5122V40.0732H65.6204V38.5122H67.1814ZM65.6204 11.9756V13.5366H64.0595V11.9756H65.6204ZM65.6204 13.5366V15.0976H64.0595V13.5366H65.6204ZM65.6204 15.0976V16.6585H64.0595V15.0976H65.6204ZM65.6204 16.6585V18.2195H64.0595V16.6585H65.6204ZM65.6204 18.2195V19.7805H64.0595V18.2195H65.6204ZM65.6204 19.7805V21.3415H64.0595V19.7805H65.6204ZM65.6204 21.3415V22.9024H64.0595V21.3415H65.6204ZM65.6204 22.9024V24.4634H64.0595V22.9024H65.6204ZM65.6204 24.4634V26.0244H64.0595V24.4634H65.6204ZM65.6204 26.0244V27.5854H64.0595V26.0244H65.6204ZM70.3034 11.9756V13.5366H68.7424V11.9756H70.3034ZM70.3034 13.5366V15.0976H68.7424V13.5366H70.3034ZM70.3034 15.0976V16.6585H68.7424V15.0976H70.3034ZM70.3034 16.6585V18.2195H68.7424V16.6585H70.3034ZM70.3034 18.2195V19.7805H68.7424V18.2195H70.3034ZM70.3034 19.7805V21.3415H68.7424V19.7805H70.3034ZM70.3034 22.9024V24.4634H68.7424V22.9024H70.3034ZM70.3034 24.4634V26.0244H68.7424V24.4634H70.3034ZM70.3034 26.0244V27.5854H68.7424V26.0244H70.3034ZM70.3034 27.5854V29.1463H68.7424V27.5854H70.3034ZM70.3034 29.1463V30.7073H68.7424V29.1463H70.3034ZM70.3034 30.7073V32.2683H68.7424V30.7073H70.3034ZM70.3034 32.2683V33.8293H68.7424V32.2683H70.3034ZM71.8643 33.8293V35.3902H70.3034V33.8293H71.8643ZM71.8643 35.3902V36.9512H70.3034V35.3902H71.8643ZM71.8643 36.9512V38.5122H70.3034V36.9512H71.8643ZM71.8643 32.2683V33.8293H70.3034V32.2683H71.8643ZM71.8643 30.7073V32.2683H70.3034V30.7073H71.8643ZM71.8643 29.1463V30.7073H70.3034V29.1463H71.8643ZM71.8643 27.5854V29.1463H70.3034V27.5854H71.8643ZM71.8643 26.0244V27.5854H70.3034V26.0244H71.8643ZM71.8643 24.4634V26.0244H70.3034V24.4634H71.8643ZM71.8643 22.9024V24.4634H70.3034V22.9024H71.8643ZM71.8643 21.3415V22.9024H70.3034V21.3415H71.8643ZM71.8643 19.7805V21.3415H70.3034V19.7805H71.8643ZM71.8643 18.2195V19.7805H70.3034V18.2195H71.8643ZM70.3034 21.3415V22.9024H68.7424V21.3415H70.3034ZM71.8643 16.6585V18.2195H70.3034V16.6585H71.8643ZM71.8643 15.0976V16.6585H70.3034V15.0976H71.8643ZM71.8643 13.5366V15.0976H70.3034V13.5366H71.8643ZM71.8643 11.9756V13.5366H70.3034V11.9756H71.8643ZM68.7424 11.9756V13.5366H67.1814V11.9756H68.7424ZM67.1814 11.9756V13.5366H65.6204V11.9756H67.1814ZM67.1814 13.5366V15.0976H65.6204V13.5366H67.1814ZM68.7424 13.5366V15.0976H67.1814V13.5366H68.7424ZM68.7424 15.0976V16.6585H67.1814V15.0976H68.7424ZM68.7424 16.6585V18.2195H67.1814V16.6585H68.7424ZM68.7424 18.2195V19.7805H67.1814V18.2195H68.7424ZM68.7424 19.7805V21.3415H67.1814V19.7805H68.7424ZM68.7424 21.3415V22.9024H67.1814V21.3415H68.7424ZM68.7424 22.9024V24.4634H67.1814V22.9024H68.7424ZM67.1814 24.4634V26.0244H65.6204V24.4634H67.1814ZM67.1814 26.0244V27.5854H65.6204V26.0244H67.1814ZM67.1814 22.9024V24.4634H65.6204V22.9024H67.1814ZM67.1814 21.3415V22.9024H65.6204V21.3415H67.1814ZM67.1814 19.7805V21.3415H65.6204V19.7805H67.1814ZM67.1814 18.2195V19.7805H65.6204V18.2195H67.1814ZM67.1814 16.6585V18.2195H65.6204V16.6585H67.1814ZM67.1814 15.0976V16.6585H65.6204V15.0976H67.1814ZM68.7424 24.4634V26.0244H67.1814V24.4634H68.7424ZM68.7424 26.0244V27.5854H67.1814V26.0244H68.7424ZM68.7424 27.5854V29.1463H67.1814V27.5854H68.7424ZM68.7424 29.1463V30.7073H67.1814V29.1463H68.7424ZM68.7424 30.7073V32.2683H67.1814V30.7073H68.7424ZM68.7424 32.2683V33.8293H67.1814V32.2683H68.7424ZM68.7424 33.8293V35.3902H67.1814V33.8293H68.7424ZM68.7424 35.3902V36.9512H67.1814V35.3902H68.7424ZM68.7424 36.9512V38.5122H67.1814V36.9512H68.7424ZM70.3034 35.3902V36.9512H68.7424V35.3902H70.3034ZM70.3034 33.8293V35.3902H68.7424V33.8293H70.3034ZM79.6829 49.439V51H78.122V49.439H79.6829ZM79.6829 47.878V49.439H78.122V47.878H79.6829ZM79.6829 46.3171V47.878H78.122V46.3171H79.6829ZM79.6829 44.7561V46.3171H78.122V44.7561H79.6829ZM79.6829 43.1951V44.7561H78.122V43.1951H79.6829ZM79.6829 41.6341V43.1951H78.122V41.6341H79.6829ZM79.6829 40.0732V41.6341H78.122V40.0732H79.6829ZM79.6829 38.5122V40.0732H78.122V38.5122H79.6829ZM79.6829 36.9512V38.5122H78.122V36.9512H79.6829ZM79.6829 35.3902V36.9512H78.122V35.3902H79.6829ZM79.6829 33.8293V35.3902H78.122V33.8293H79.6829ZM79.6829 32.2683V33.8293H78.122V32.2683H79.6829ZM79.6829 30.7073V32.2683H78.122V30.7073H79.6829ZM79.6829 29.1463V30.7073H78.122V29.1463H79.6829ZM79.6829 27.5854V29.1463H78.122V27.5854H79.6829ZM81.2439 27.5854V29.1463H79.6829V27.5854H81.2439ZM81.2439 29.1463V30.7073H79.6829V29.1463H81.2439ZM81.2439 30.7073V32.2683H79.6829V30.7073H81.2439ZM81.2439 32.2683V33.8293H79.6829V32.2683H81.2439ZM81.2439 33.8293V35.3902H79.6829V33.8293H81.2439ZM81.2439 35.3902V36.9512H79.6829V35.3902H81.2439ZM81.2439 36.9512V38.5122H79.6829V36.9512H81.2439ZM82.8049 38.5122V40.0732H81.2439V38.5122H82.8049ZM82.8049 40.0732V41.6341H81.2439V40.0732H82.8049ZM82.8049 41.6341V43.1951H81.2439V41.6341H82.8049ZM82.8049 43.1951V44.7561H81.2439V43.1951H82.8049ZM82.8049 44.7561V46.3171H81.2439V44.7561H82.8049ZM82.8049 46.3171V47.878H81.2439V46.3171H82.8049ZM82.8049 47.878V49.439H81.2439V47.878H82.8049ZM82.8049 49.439V51H81.2439V49.439H82.8049ZM84.3659 49.439V51H82.8049V49.439H84.3659ZM85.9268 49.439V51H84.3659V49.439H85.9268ZM85.9268 43.1951V44.7561H84.3659V43.1951H85.9268ZM85.9268 41.6341V43.1951H84.3659V41.6341H85.9268ZM85.9268 40.0732V41.6341H84.3659V40.0732H85.9268ZM85.9268 38.5122V40.0732H84.3659V38.5122H85.9268ZM84.3659 38.5122V40.0732H82.8049V38.5122H84.3659ZM84.3659 36.9512V38.5122H82.8049V36.9512H84.3659ZM84.3659 40.0732V41.6341H82.8049V40.0732H84.3659ZM84.3659 41.6341V43.1951H82.8049V41.6341H84.3659ZM84.3659 43.1951V44.7561H82.8049V43.1951H84.3659ZM84.3659 44.7561V46.3171H82.8049V44.7561H84.3659ZM84.3659 46.3171V47.878H82.8049V46.3171H84.3659ZM84.3659 47.878V49.439H82.8049V47.878H84.3659ZM81.2439 49.439V51H79.6829V49.439H81.2439ZM81.2439 47.878V49.439H79.6829V47.878H81.2439ZM81.2439 46.3171V47.878H79.6829V46.3171H81.2439ZM81.2439 44.7561V46.3171H79.6829V44.7561H81.2439ZM81.2439 43.1951V44.7561H79.6829V43.1951H81.2439ZM81.2439 41.6341V43.1951H79.6829V41.6341H81.2439ZM81.2439 40.0732V41.6341H79.6829V40.0732H81.2439ZM81.2439 38.5122V40.0732H79.6829V38.5122H81.2439ZM79.6829 11.9756V13.5366H78.122V11.9756H79.6829ZM79.6829 13.5366V15.0976H78.122V13.5366H79.6829ZM79.6829 15.0976V16.6585H78.122V15.0976H79.6829ZM79.6829 16.6585V18.2195H78.122V16.6585H79.6829ZM79.6829 18.2195V19.7805H78.122V18.2195H79.6829ZM79.6829 19.7805V21.3415H78.122V19.7805H79.6829ZM79.6829 21.3415V22.9024H78.122V21.3415H79.6829ZM79.6829 22.9024V24.4634H78.122V22.9024H79.6829ZM79.6829 24.4634V26.0244H78.122V24.4634H79.6829ZM79.6829 26.0244V27.5854H78.122V26.0244H79.6829ZM84.3659 11.9756V13.5366H82.8049V11.9756H84.3659ZM84.3659 13.5366V15.0976H82.8049V13.5366H84.3659ZM84.3659 15.0976V16.6585H82.8049V15.0976H84.3659ZM84.3659 16.6585V18.2195H82.8049V16.6585H84.3659ZM84.3659 18.2195V19.7805H82.8049V18.2195H84.3659ZM84.3659 19.7805V21.3415H82.8049V19.7805H84.3659ZM84.3659 22.9024V24.4634H82.8049V22.9024H84.3659ZM84.3659 24.4634V26.0244H82.8049V24.4634H84.3659ZM84.3659 26.0244V27.5854H82.8049V26.0244H84.3659ZM84.3659 27.5854V29.1463H82.8049V27.5854H84.3659ZM84.3659 29.1463V30.7073H82.8049V29.1463H84.3659ZM84.3659 30.7073V32.2683H82.8049V30.7073H84.3659ZM84.3659 32.2683V33.8293H82.8049V32.2683H84.3659ZM85.9268 33.8293V35.3902H84.3659V33.8293H85.9268ZM85.9268 35.3902V36.9512H84.3659V35.3902H85.9268ZM85.9268 36.9512V38.5122H84.3659V36.9512H85.9268ZM85.9268 32.2683V33.8293H84.3659V32.2683H85.9268ZM85.9268 30.7073V32.2683H84.3659V30.7073H85.9268ZM85.9268 29.1463V30.7073H84.3659V29.1463H85.9268ZM85.9268 27.5854V29.1463H84.3659V27.5854H85.9268ZM85.9268 26.0244V27.5854H84.3659V26.0244H85.9268ZM85.9268 24.4634V26.0244H84.3659V24.4634H85.9268ZM85.9268 22.9024V24.4634H84.3659V22.9024H85.9268ZM85.9268 21.3415V22.9024H84.3659V21.3415H85.9268ZM85.9268 19.7805V21.3415H84.3659V19.7805H85.9268ZM85.9268 18.2195V19.7805H84.3659V18.2195H85.9268ZM84.3659 21.3415V22.9024H82.8049V21.3415H84.3659ZM85.9268 16.6585V18.2195H84.3659V16.6585H85.9268ZM85.9268 15.0976V16.6585H84.3659V15.0976H85.9268ZM85.9268 13.5366V15.0976H84.3659V13.5366H85.9268ZM85.9268 11.9756V13.5366H84.3659V11.9756H85.9268ZM82.8049 11.9756V13.5366H81.2439V11.9756H82.8049ZM81.2439 11.9756V13.5366H79.6829V11.9756H81.2439ZM81.2439 13.5366V15.0976H79.6829V13.5366H81.2439ZM82.8049 13.5366V15.0976H81.2439V13.5366H82.8049ZM82.8049 15.0976V16.6585H81.2439V15.0976H82.8049ZM82.8049 16.6585V18.2195H81.2439V16.6585H82.8049ZM82.8049 18.2195V19.7805H81.2439V18.2195H82.8049ZM82.8049 19.7805V21.3415H81.2439V19.7805H82.8049ZM82.8049 21.3415V22.9024H81.2439V21.3415H82.8049ZM82.8049 22.9024V24.4634H81.2439V22.9024H82.8049ZM81.2439 24.4634V26.0244H79.6829V24.4634H81.2439ZM81.2439 26.0244V27.5854H79.6829V26.0244H81.2439ZM81.2439 22.9024V24.4634H79.6829V22.9024H81.2439ZM81.2439 21.3415V22.9024H79.6829V21.3415H81.2439ZM81.2439 19.7805V21.3415H79.6829V19.7805H81.2439ZM81.2439 18.2195V19.7805H79.6829V18.2195H81.2439ZM81.2439 16.6585V18.2195H79.6829V16.6585H81.2439ZM81.2439 15.0976V16.6585H79.6829V15.0976H81.2439ZM82.8049 24.4634V26.0244H81.2439V24.4634H82.8049ZM82.8049 26.0244V27.5854H81.2439V26.0244H82.8049ZM82.8049 27.5854V29.1463H81.2439V27.5854H82.8049ZM82.8049 29.1463V30.7073H81.2439V29.1463H82.8049ZM82.8049 30.7073V32.2683H81.2439V30.7073H82.8049ZM82.8049 32.2683V33.8293H81.2439V32.2683H82.8049ZM82.8049 33.8293V35.3902H81.2439V33.8293H82.8049ZM82.8049 35.3902V36.9512H81.2439V35.3902H82.8049ZM82.8049 36.9512V38.5122H81.2439V36.9512H82.8049ZM84.3659 35.3902V36.9512H82.8049V35.3902H84.3659ZM84.3659 33.8293V35.3902H82.8049V33.8293H84.3659ZM87.4878 33.8293V35.3902H85.9268V33.8293H87.4878ZM89.0488 33.8293V35.3902H87.4878V33.8293H89.0488ZM89.0488 35.3902V36.9512H87.4878V35.3902H89.0488ZM87.4878 35.3902V36.9512H85.9268V35.3902H87.4878ZM87.4878 30.7073V32.2683H85.9268V30.7073H87.4878ZM89.0488 30.7073V32.2683H87.4878V30.7073H89.0488ZM87.4878 36.9512V38.5122H85.9268V36.9512H87.4878ZM89.0488 36.9512V38.5122H87.4878V36.9512H89.0488ZM89.0488 32.2683V33.8293H87.4878V32.2683H89.0488ZM87.4878 32.2683V33.8293H85.9268V32.2683H87.4878ZM87.4878 11.9756V13.5366H85.9268V11.9756H87.4878ZM89.0488 11.9756V13.5366H87.4878V11.9756H89.0488ZM89.0488 13.5366V15.0976H87.4878V13.5366H89.0488ZM87.4878 13.5366V15.0976H85.9268V13.5366H87.4878ZM87.4878 15.0976V16.6585H85.9268V15.0976H87.4878ZM89.0488 15.0976V16.6585H87.4878V15.0976H89.0488ZM89.0488 16.6585V18.2195H87.4878V16.6585H89.0488ZM87.4878 16.6585V18.2195H85.9268V16.6585H87.4878ZM87.4878 18.2195V19.7805H85.9268V18.2195H87.4878ZM89.0488 18.2195V19.7805H87.4878V18.2195H89.0488ZM90.6098 30.7073V32.2683H89.0488V30.7073H90.6098ZM92.1707 30.7073V32.2683H90.6098V30.7073H92.1707ZM93.7317 30.7073V32.2683H92.1707V30.7073H93.7317ZM95.2927 29.1463V30.7073H93.7317V29.1463H95.2927ZM96.8537 27.5854V29.1463H95.2927V27.5854H96.8537ZM96.8537 26.0244V27.5854H95.2927V26.0244H96.8537ZM96.8537 21.3415V22.9024H95.2927V21.3415H96.8537ZM95.2927 19.7805V21.3415H93.7317V19.7805H95.2927ZM93.7317 18.2195V19.7805H92.1707V18.2195H93.7317ZM92.1707 18.2195V19.7805H90.6098V18.2195H92.1707ZM90.6098 18.2195V19.7805H89.0488V18.2195H90.6098ZM90.6098 11.9756V13.5366H89.0488V11.9756H90.6098ZM92.1707 11.9756V13.5366H90.6098V11.9756H92.1707ZM93.7317 11.9756V13.5366H92.1707V11.9756H93.7317ZM95.2927 11.9756V13.5366H93.7317V11.9756H95.2927ZM95.2927 13.5366V15.0976H93.7317V13.5366H95.2927ZM95.2927 15.0976V16.6585H93.7317V15.0976H95.2927ZM95.2927 16.6585V18.2195H93.7317V16.6585H95.2927ZM93.7317 16.6585V18.2195H92.1707V16.6585H93.7317ZM93.7317 15.0976V16.6585H92.1707V15.0976H93.7317ZM92.1707 15.0976V16.6585H90.6098V15.0976H92.1707ZM90.6098 15.0976V16.6585H89.0488V15.0976H90.6098ZM90.6098 13.5366V15.0976H89.0488V13.5366H90.6098ZM92.1707 13.5366V15.0976H90.6098V13.5366H92.1707ZM93.7317 13.5366V15.0976H92.1707V13.5366H93.7317ZM90.6098 16.6585V18.2195H89.0488V16.6585H90.6098ZM92.1707 16.6585V18.2195H90.6098V16.6585H92.1707ZM95.2927 18.2195V19.7805H93.7317V18.2195H95.2927ZM96.8537 19.7805V21.3415H95.2927V19.7805H96.8537ZM96.8537 18.2195V19.7805H95.2927V18.2195H96.8537ZM96.8537 16.6585V18.2195H95.2927V16.6585H96.8537ZM96.8537 15.0976V16.6585H95.2927V15.0976H96.8537ZM96.8537 13.5366V15.0976H95.2927V13.5366H96.8537ZM96.8537 11.9756V13.5366H95.2927V11.9756H96.8537ZM96.8537 29.1463V30.7073H95.2927V29.1463H96.8537ZM96.8537 30.7073V32.2683H95.2927V30.7073H96.8537ZM96.8537 32.2683V33.8293H95.2927V32.2683H96.8537ZM96.8537 33.8293V35.3902H95.2927V33.8293H96.8537ZM95.2927 33.8293V35.3902H93.7317V33.8293H95.2927ZM93.7317 33.8293V35.3902H92.1707V33.8293H93.7317ZM92.1707 33.8293V35.3902H90.6098V33.8293H92.1707ZM90.6098 33.8293V35.3902H89.0488V33.8293H90.6098ZM90.6098 32.2683V33.8293H89.0488V32.2683H90.6098ZM92.1707 32.2683V33.8293H90.6098V32.2683H92.1707ZM93.7317 32.2683V33.8293H92.1707V32.2683H93.7317ZM95.2927 32.2683V33.8293H93.7317V32.2683H95.2927ZM95.2927 30.7073V32.2683H93.7317V30.7073H95.2927ZM90.6098 35.3902V36.9512H89.0488V35.3902H90.6098ZM92.1707 35.3902V36.9512H90.6098V35.3902H92.1707ZM93.7317 35.3902V36.9512H92.1707V35.3902H93.7317ZM95.2927 35.3902V36.9512H93.7317V35.3902H95.2927ZM96.8537 35.3902V36.9512H95.2927V35.3902H96.8537ZM96.8537 36.9512V38.5122H95.2927V36.9512H96.8537ZM95.2927 36.9512V38.5122H93.7317V36.9512H95.2927ZM93.7317 36.9512V38.5122H92.1707V36.9512H93.7317ZM92.1707 36.9512V38.5122H90.6098V36.9512H92.1707ZM90.6098 36.9512V38.5122H89.0488V36.9512H90.6098ZM98.4146 13.5366V15.0976H96.8537V13.5366H98.4146ZM99.9756 13.5366V15.0976H98.4146V13.5366H99.9756ZM99.9756 15.0976V16.6585H98.4146V15.0976H99.9756ZM101.537 15.0976V16.6585H99.9756V15.0976H101.537ZM101.537 16.6585V18.2195H99.9756V16.6585H101.537ZM101.537 18.2195V19.7805H99.9756V18.2195H101.537ZM103.098 18.2195V19.7805H101.537V18.2195H103.098ZM103.098 19.7805V21.3415H101.537V19.7805H103.098ZM103.098 21.3415V22.9024H101.537V21.3415H103.098ZM103.098 26.0244V27.5854H101.537V26.0244H103.098ZM103.098 27.5854V29.1463H101.537V27.5854H103.098ZM103.098 29.1463V30.7073H101.537V29.1463H103.098ZM103.098 30.7073V32.2683H101.537V30.7073H103.098ZM101.537 32.2683V33.8293H99.9756V32.2683H101.537ZM99.9756 33.8293V35.3902H98.4146V33.8293H99.9756ZM98.4146 35.3902V36.9512H96.8537V35.3902H98.4146ZM99.9756 35.3902V36.9512H98.4146V35.3902H99.9756ZM98.4146 36.9512V38.5122H96.8537V36.9512H98.4146ZM98.4146 15.0976V16.6585H96.8537V15.0976H98.4146ZM98.4146 16.6585V18.2195H96.8537V16.6585H98.4146ZM98.4146 18.2195V19.7805H96.8537V18.2195H98.4146ZM98.4146 19.7805V21.3415H96.8537V19.7805H98.4146ZM98.4146 21.3415V22.9024H96.8537V21.3415H98.4146ZM98.4146 26.0244V27.5854H96.8537V26.0244H98.4146ZM98.4146 27.5854V29.1463H96.8537V27.5854H98.4146ZM98.4146 29.1463V30.7073H96.8537V29.1463H98.4146ZM98.4146 30.7073V32.2683H96.8537V30.7073H98.4146ZM98.4146 32.2683V33.8293H96.8537V32.2683H98.4146ZM98.4146 33.8293V35.3902H96.8537V33.8293H98.4146ZM99.9756 32.2683V33.8293H98.4146V32.2683H99.9756ZM99.9756 30.7073V32.2683H98.4146V30.7073H99.9756ZM99.9756 29.1463V30.7073H98.4146V29.1463H99.9756ZM99.9756 27.5854V29.1463H98.4146V27.5854H99.9756ZM99.9756 26.0244V27.5854H98.4146V26.0244H99.9756ZM99.9756 21.3415V22.9024H98.4146V21.3415H99.9756ZM99.9756 19.7805V21.3415H98.4146V19.7805H99.9756ZM99.9756 18.2195V19.7805H98.4146V18.2195H99.9756ZM99.9756 16.6585V18.2195H98.4146V16.6585H99.9756ZM101.537 19.7805V21.3415H99.9756V19.7805H101.537ZM101.537 21.3415V22.9024H99.9756V21.3415H101.537ZM101.537 26.0244V27.5854H99.9756V26.0244H101.537ZM101.537 27.5854V29.1463H99.9756V27.5854H101.537ZM101.537 29.1463V30.7073H99.9756V29.1463H101.537ZM101.537 30.7073V32.2683H99.9756V30.7073H101.537ZM85.9268 46.3171V47.878H84.3659V46.3171H85.9268ZM85.9268 47.878V49.439H84.3659V47.878H85.9268ZM85.9268 44.7561V46.3171H84.3659V44.7561H85.9268ZM96.8537 22.9024V24.4634H95.2927V22.9024H96.8537ZM98.4146 22.9024V24.4634H96.8537V22.9024H98.4146ZM99.9756 22.9024V24.4634H98.4146V22.9024H99.9756ZM101.537 22.9024V24.4634H99.9756V22.9024H101.537ZM103.098 22.9024V24.4634H101.537V22.9024H103.098ZM103.098 24.4634V26.0244H101.537V24.4634H103.098ZM101.537 24.4634V26.0244H99.9756V24.4634H101.537ZM99.9756 24.4634V26.0244H98.4146V24.4634H99.9756ZM98.4146 24.4634V26.0244H96.8537V24.4634H98.4146ZM96.8537 24.4634V26.0244H95.2927V24.4634H96.8537ZM110.933 49.439V51H109.372V49.439H110.933ZM110.933 47.878V49.439H109.372V47.878H110.933ZM110.933 46.3171V47.878H109.372V46.3171H110.933ZM110.933 44.7561V46.3171H109.372V44.7561H110.933ZM110.933 43.1951V44.7561H109.372V43.1951H110.933ZM110.933 41.6341V43.1951H109.372V41.6341H110.933ZM110.933 40.0732V41.6341H109.372V40.0732H110.933ZM110.933 38.5122V40.0732H109.372V38.5122H110.933ZM110.933 36.9512V38.5122H109.372V36.9512H110.933ZM110.933 35.3902V36.9512H109.372V35.3902H110.933ZM110.933 33.8293V35.3902H109.372V33.8293H110.933ZM110.933 32.2683V33.8293H109.372V32.2683H110.933ZM110.933 30.7073V32.2683H109.372V30.7073H110.933ZM110.933 29.1463V30.7073H109.372V29.1463H110.933ZM110.933 27.5854V29.1463H109.372V27.5854H110.933ZM112.494 27.5854V29.1463H110.933V27.5854H112.494ZM112.494 29.1463V30.7073H110.933V29.1463H112.494ZM112.494 30.7073V32.2683H110.933V30.7073H112.494ZM112.494 32.2683V33.8293H110.933V32.2683H112.494ZM112.494 33.8293V35.3902H110.933V33.8293H112.494ZM112.494 35.3902V36.9512H110.933V35.3902H112.494ZM112.494 36.9512V38.5122H110.933V36.9512H112.494ZM114.055 38.5122V40.0732H112.494V38.5122H114.055ZM114.055 40.0732V41.6341H112.494V40.0732H114.055ZM114.055 41.6341V43.1951H112.494V41.6341H114.055ZM114.055 43.1951V44.7561H112.494V43.1951H114.055ZM114.055 44.7561V46.3171H112.494V44.7561H114.055ZM114.055 46.3171V47.878H112.494V46.3171H114.055ZM114.055 47.878V49.439H112.494V47.878H114.055ZM114.055 49.439V51H112.494V49.439H114.055ZM115.616 49.439V51H114.055V49.439H115.616ZM117.177 49.439V51H115.616V49.439H117.177ZM117.177 47.878V49.439H115.616V47.878H117.177ZM117.177 46.3171V47.878H115.616V46.3171H117.177ZM117.177 44.7561V46.3171H115.616V44.7561H117.177ZM117.177 43.1951V44.7561H115.616V43.1951H117.177ZM117.177 41.6341V43.1951H115.616V41.6341H117.177ZM117.177 40.0732V41.6341H115.616V40.0732H117.177ZM117.177 38.5122V40.0732H115.616V38.5122H117.177ZM115.616 38.5122V40.0732H114.055V38.5122H115.616ZM115.616 36.9512V38.5122H114.055V36.9512H115.616ZM115.616 40.0732V41.6341H114.055V40.0732H115.616ZM115.616 41.6341V43.1951H114.055V41.6341H115.616ZM115.616 43.1951V44.7561H114.055V43.1951H115.616ZM115.616 44.7561V46.3171H114.055V44.7561H115.616ZM115.616 46.3171V47.878H114.055V46.3171H115.616ZM115.616 47.878V49.439H114.055V47.878H115.616ZM112.494 49.439V51H110.933V49.439H112.494ZM112.494 47.878V49.439H110.933V47.878H112.494ZM112.494 46.3171V47.878H110.933V46.3171H112.494ZM112.494 44.7561V46.3171H110.933V44.7561H112.494ZM112.494 43.1951V44.7561H110.933V43.1951H112.494ZM112.494 41.6341V43.1951H110.933V41.6341H112.494ZM112.494 40.0732V41.6341H110.933V40.0732H112.494ZM112.494 38.5122V40.0732H110.933V38.5122H112.494ZM110.933 11.9756V13.5366H109.372V11.9756H110.933ZM110.933 13.5366V15.0976H109.372V13.5366H110.933ZM110.933 15.0976V16.6585H109.372V15.0976H110.933ZM110.933 16.6585V18.2195H109.372V16.6585H110.933ZM110.933 18.2195V19.7805H109.372V18.2195H110.933ZM110.933 19.7805V21.3415H109.372V19.7805H110.933ZM110.933 21.3415V22.9024H109.372V21.3415H110.933ZM110.933 22.9024V24.4634H109.372V22.9024H110.933ZM110.933 24.4634V26.0244H109.372V24.4634H110.933ZM110.933 26.0244V27.5854H109.372V26.0244H110.933ZM115.616 11.9756V13.5366H114.055V11.9756H115.616ZM115.616 13.5366V15.0976H114.055V13.5366H115.616ZM115.616 15.0976V16.6585H114.055V15.0976H115.616ZM115.616 16.6585V18.2195H114.055V16.6585H115.616ZM115.616 18.2195V19.7805H114.055V18.2195H115.616ZM115.616 19.7805V21.3415H114.055V19.7805H115.616ZM115.616 22.9024V24.4634H114.055V22.9024H115.616ZM115.616 24.4634V26.0244H114.055V24.4634H115.616ZM115.616 26.0244V27.5854H114.055V26.0244H115.616ZM115.616 27.5854V29.1463H114.055V27.5854H115.616ZM115.616 29.1463V30.7073H114.055V29.1463H115.616ZM115.616 30.7073V32.2683H114.055V30.7073H115.616ZM115.616 32.2683V33.8293H114.055V32.2683H115.616ZM117.177 33.8293V35.3902H115.616V33.8293H117.177ZM117.177 35.3902V36.9512H115.616V35.3902H117.177ZM117.177 36.9512V38.5122H115.616V36.9512H117.177ZM117.177 32.2683V33.8293H115.616V32.2683H117.177ZM117.177 30.7073V32.2683H115.616V30.7073H117.177ZM117.177 29.1463V30.7073H115.616V29.1463H117.177ZM117.177 27.5854V29.1463H115.616V27.5854H117.177ZM117.177 26.0244V27.5854H115.616V26.0244H117.177ZM117.177 24.4634V26.0244H115.616V24.4634H117.177ZM117.177 22.9024V24.4634H115.616V22.9024H117.177ZM117.177 21.3415V22.9024H115.616V21.3415H117.177ZM117.177 19.7805V21.3415H115.616V19.7805H117.177ZM117.177 18.2195V19.7805H115.616V18.2195H117.177ZM115.616 21.3415V22.9024H114.055V21.3415H115.616ZM117.177 16.6585V18.2195H115.616V16.6585H117.177ZM117.177 15.0976V16.6585H115.616V15.0976H117.177ZM117.177 13.5366V15.0976H115.616V13.5366H117.177ZM117.177 11.9756V13.5366H115.616V11.9756H117.177ZM114.055 11.9756V13.5366H112.494V11.9756H114.055ZM112.494 11.9756V13.5366H110.933V11.9756H112.494ZM112.494 13.5366V15.0976H110.933V13.5366H112.494ZM114.055 13.5366V15.0976H112.494V13.5366H114.055ZM114.055 15.0976V16.6585H112.494V15.0976H114.055ZM114.055 16.6585V18.2195H112.494V16.6585H114.055ZM114.055 18.2195V19.7805H112.494V18.2195H114.055ZM114.055 19.7805V21.3415H112.494V19.7805H114.055ZM114.055 21.3415V22.9024H112.494V21.3415H114.055ZM114.055 22.9024V24.4634H112.494V22.9024H114.055ZM112.494 24.4634V26.0244H110.933V24.4634H112.494ZM112.494 26.0244V27.5854H110.933V26.0244H112.494ZM112.494 22.9024V24.4634H110.933V22.9024H112.494ZM112.494 21.3415V22.9024H110.933V21.3415H112.494ZM112.494 19.7805V21.3415H110.933V19.7805H112.494ZM112.494 18.2195V19.7805H110.933V18.2195H112.494ZM112.494 16.6585V18.2195H110.933V16.6585H112.494ZM112.494 15.0976V16.6585H110.933V15.0976H112.494ZM114.055 24.4634V26.0244H112.494V24.4634H114.055ZM114.055 26.0244V27.5854H112.494V26.0244H114.055ZM114.055 27.5854V29.1463H112.494V27.5854H114.055ZM114.055 29.1463V30.7073H112.494V29.1463H114.055ZM114.055 30.7073V32.2683H112.494V30.7073H114.055ZM114.055 32.2683V33.8293H112.494V32.2683H114.055ZM114.055 33.8293V35.3902H112.494V33.8293H114.055ZM114.055 35.3902V36.9512H112.494V35.3902H114.055ZM114.055 36.9512V38.5122H112.494V36.9512H114.055ZM115.616 35.3902V36.9512H114.055V35.3902H115.616ZM115.616 33.8293V35.3902H114.055V33.8293H115.616ZM118.738 49.439V51H117.177V49.439H118.738ZM120.299 49.439V51H118.738V49.439H120.299ZM120.299 47.878V49.439H118.738V47.878H120.299ZM120.299 46.3171V47.878H118.738V46.3171H120.299ZM120.299 44.7561V46.3171H118.738V44.7561H120.299ZM120.299 43.1951V44.7561H118.738V43.1951H120.299ZM118.738 43.1951V44.7561H117.177V43.1951H118.738ZM118.738 44.7561V46.3171H117.177V44.7561H118.738ZM118.738 46.3171V47.878H117.177V46.3171H118.738ZM118.738 47.878V49.439H117.177V47.878H118.738ZM121.86 43.1951V44.7561H120.299V43.1951H121.86ZM123.421 43.1951V44.7561H121.86V43.1951H123.421ZM124.982 43.1951V44.7561H123.421V43.1951H124.982ZM124.982 47.878V49.439H123.421V47.878H124.982ZM123.421 49.439V51H121.86V49.439H123.421ZM121.86 49.439V51H120.299V49.439H121.86ZM124.982 49.439V51H123.421V49.439H124.982ZM123.421 47.878V49.439H121.86V47.878H123.421ZM121.86 47.878V49.439H120.299V47.878H121.86ZM121.86 46.3171V47.878H120.299V46.3171H121.86ZM123.421 46.3171V47.878H121.86V46.3171H123.421ZM124.982 46.3171V47.878H123.421V46.3171H124.982ZM124.982 44.7561V46.3171H123.421V44.7561H124.982ZM123.421 44.7561V46.3171H121.86V44.7561H123.421ZM121.86 44.7561V46.3171H120.299V44.7561H121.86ZM126.543 49.439V51H124.982V49.439H126.543ZM128.104 49.439V51H126.543V49.439H128.104ZM129.665 49.439V51H128.104V49.439H129.665ZM129.665 47.878V49.439H128.104V47.878H129.665ZM126.543 43.1951V44.7561H124.982V43.1951H126.543ZM128.104 43.1951V44.7561H126.543V43.1951H128.104ZM129.665 43.1951V44.7561H128.104V43.1951H129.665ZM129.665 44.7561V46.3171H128.104V44.7561H129.665ZM129.665 46.3171V47.878H128.104V46.3171H129.665ZM128.104 46.3171V47.878H126.543V46.3171H128.104ZM128.104 44.7561V46.3171H126.543V44.7561H128.104ZM126.543 44.7561V46.3171H124.982V44.7561H126.543ZM126.543 46.3171V47.878H124.982V46.3171H126.543ZM126.543 47.878V49.439H124.982V47.878H126.543ZM128.104 47.878V49.439H126.543V47.878H128.104ZM137.495 43.1951V44.7561H135.934V43.1951H137.495ZM137.495 41.6341V43.1951H135.934V41.6341H137.495ZM137.495 40.0732V41.6341H135.934V40.0732H137.495ZM137.495 38.5122V40.0732H135.934V38.5122H137.495ZM137.495 36.9512V38.5122H135.934V36.9512H137.495ZM137.495 35.3902V36.9512H135.934V35.3902H137.495ZM137.495 33.8293V35.3902H135.934V33.8293H137.495ZM137.495 32.2683V33.8293H135.934V32.2683H137.495ZM137.495 30.7073V32.2683H135.934V30.7073H137.495ZM137.495 29.1463V30.7073H135.934V29.1463H137.495ZM137.495 27.5854V29.1463H135.934V27.5854H137.495ZM139.056 27.5854V29.1463H137.495V27.5854H139.056ZM139.056 29.1463V30.7073H137.495V29.1463H139.056ZM139.056 30.7073V32.2683H137.495V30.7073H139.056ZM139.056 32.2683V33.8293H137.495V32.2683H139.056ZM139.056 33.8293V35.3902H137.495V33.8293H139.056ZM139.056 35.3902V36.9512H137.495V35.3902H139.056ZM139.056 36.9512V38.5122H137.495V36.9512H139.056ZM140.617 38.5122V40.0732H139.056V38.5122H140.617ZM140.617 40.0732V41.6341H139.056V40.0732H140.617ZM140.617 41.6341V43.1951H139.056V41.6341H140.617ZM140.617 43.1951V44.7561H139.056V43.1951H140.617ZM140.617 44.7561V46.3171H139.056V44.7561H140.617ZM140.617 46.3171V47.878H139.056V46.3171H140.617ZM140.617 47.878V49.439H139.056V47.878H140.617ZM143.739 49.439V51H142.178V49.439H143.739ZM143.739 47.878V49.439H142.178V47.878H143.739ZM143.739 46.3171V47.878H142.178V46.3171H143.739ZM143.739 44.7561V46.3171H142.178V44.7561H143.739ZM143.739 43.1951V44.7561H142.178V43.1951H143.739ZM143.739 41.6341V43.1951H142.178V41.6341H143.739ZM143.739 40.0732V41.6341H142.178V40.0732H143.739ZM143.739 38.5122V40.0732H142.178V38.5122H143.739ZM142.178 38.5122V40.0732H140.617V38.5122H142.178ZM142.178 36.9512V38.5122H140.617V36.9512H142.178ZM142.178 40.0732V41.6341H140.617V40.0732H142.178ZM142.178 41.6341V43.1951H140.617V41.6341H142.178ZM142.178 43.1951V44.7561H140.617V43.1951H142.178ZM142.178 44.7561V46.3171H140.617V44.7561H142.178ZM142.178 46.3171V47.878H140.617V46.3171H142.178ZM142.178 47.878V49.439H140.617V47.878H142.178ZM139.056 46.3171V47.878H137.495V46.3171H139.056ZM139.056 44.7561V46.3171H137.495V44.7561H139.056ZM139.056 43.1951V44.7561H137.495V43.1951H139.056ZM139.056 41.6341V43.1951H137.495V41.6341H139.056ZM139.056 40.0732V41.6341H137.495V40.0732H139.056ZM139.056 38.5122V40.0732H137.495V38.5122H139.056ZM137.495 26.0244V27.5854H135.934V26.0244H137.495ZM142.178 26.0244V27.5854H140.617V26.0244H142.178ZM142.178 27.5854V29.1463H140.617V27.5854H142.178ZM142.178 29.1463V30.7073H140.617V29.1463H142.178ZM142.178 30.7073V32.2683H140.617V30.7073H142.178ZM142.178 32.2683V33.8293H140.617V32.2683H142.178ZM143.739 33.8293V35.3902H142.178V33.8293H143.739ZM143.739 35.3902V36.9512H142.178V35.3902H143.739ZM143.739 36.9512V38.5122H142.178V36.9512H143.739ZM143.739 32.2683V33.8293H142.178V32.2683H143.739ZM143.739 30.7073V32.2683H142.178V30.7073H143.739ZM143.739 29.1463V30.7073H142.178V29.1463H143.739ZM143.739 27.5854V29.1463H142.178V27.5854H143.739ZM143.739 26.0244V27.5854H142.178V26.0244H143.739ZM139.056 26.0244V27.5854H137.495V26.0244H139.056ZM140.617 26.0244V27.5854H139.056V26.0244H140.617ZM140.617 27.5854V29.1463H139.056V27.5854H140.617ZM140.617 29.1463V30.7073H139.056V29.1463H140.617ZM140.617 30.7073V32.2683H139.056V30.7073H140.617ZM140.617 32.2683V33.8293H139.056V32.2683H140.617ZM140.617 33.8293V35.3902H139.056V33.8293H140.617ZM140.617 35.3902V36.9512H139.056V35.3902H140.617ZM140.617 36.9512V38.5122H139.056V36.9512H140.617ZM142.178 35.3902V36.9512H140.617V35.3902H142.178ZM142.178 33.8293V35.3902H140.617V33.8293H142.178ZM156.227 49.439V51H154.666V49.439H156.227ZM156.227 47.878V49.439H154.666V47.878H156.227ZM156.227 46.3171V47.878H154.666V46.3171H156.227ZM156.227 44.7561V46.3171H154.666V44.7561H156.227ZM156.227 43.1951V44.7561H154.666V43.1951H156.227ZM156.227 41.6341V43.1951H154.666V41.6341H156.227ZM156.227 40.0732V41.6341H154.666V40.0732H156.227ZM156.227 38.5122V40.0732H154.666V38.5122H156.227ZM156.227 36.9512V38.5122H154.666V36.9512H156.227ZM156.227 35.3902V36.9512H154.666V35.3902H156.227ZM156.227 33.8293V35.3902H154.666V33.8293H156.227ZM156.227 32.2683V33.8293H154.666V32.2683H156.227ZM156.227 30.7073V32.2683H154.666V30.7073H156.227ZM156.227 29.1463V30.7073H154.666V29.1463H156.227ZM156.227 27.5854V29.1463H154.666V27.5854H156.227ZM157.788 27.5854V29.1463H156.227V27.5854H157.788ZM157.788 29.1463V30.7073H156.227V29.1463H157.788ZM157.788 30.7073V32.2683H156.227V30.7073H157.788ZM157.788 32.2683V33.8293H156.227V32.2683H157.788ZM157.788 33.8293V35.3902H156.227V33.8293H157.788ZM157.788 35.3902V36.9512H156.227V35.3902H157.788ZM157.788 36.9512V38.5122H156.227V36.9512H157.788ZM159.349 38.5122V40.0732H157.788V38.5122H159.349ZM159.349 40.0732V41.6341H157.788V40.0732H159.349ZM159.349 41.6341V43.1951H157.788V41.6341H159.349ZM159.349 43.1951V44.7561H157.788V43.1951H159.349ZM159.349 44.7561V46.3171H157.788V44.7561H159.349ZM159.349 46.3171V47.878H157.788V46.3171H159.349ZM159.349 47.878V49.439H157.788V47.878H159.349ZM162.471 43.1951V44.7561H160.91V43.1951H162.471ZM162.471 41.6341V43.1951H160.91V41.6341H162.471ZM162.471 40.0732V41.6341H160.91V40.0732H162.471ZM162.471 38.5122V40.0732H160.91V38.5122H162.471ZM160.91 38.5122V40.0732H159.349V38.5122H160.91ZM160.91 36.9512V38.5122H159.349V36.9512H160.91ZM160.91 40.0732V41.6341H159.349V40.0732H160.91ZM160.91 41.6341V43.1951H159.349V41.6341H160.91ZM160.91 43.1951V44.7561H159.349V43.1951H160.91ZM160.91 44.7561V46.3171H159.349V44.7561H160.91ZM160.91 46.3171V47.878H159.349V46.3171H160.91ZM157.788 47.878V49.439H156.227V47.878H157.788ZM157.788 46.3171V47.878H156.227V46.3171H157.788ZM157.788 44.7561V46.3171H156.227V44.7561H157.788ZM157.788 43.1951V44.7561H156.227V43.1951H157.788ZM157.788 41.6341V43.1951H156.227V41.6341H157.788ZM157.788 40.0732V41.6341H156.227V40.0732H157.788ZM157.788 38.5122V40.0732H156.227V38.5122H157.788ZM156.227 26.0244V27.5854H154.666V26.0244H156.227ZM160.91 26.0244V27.5854H159.349V26.0244H160.91ZM160.91 27.5854V29.1463H159.349V27.5854H160.91ZM160.91 29.1463V30.7073H159.349V29.1463H160.91ZM160.91 30.7073V32.2683H159.349V30.7073H160.91ZM160.91 32.2683V33.8293H159.349V32.2683H160.91ZM162.471 33.8293V35.3902H160.91V33.8293H162.471ZM162.471 35.3902V36.9512H160.91V35.3902H162.471ZM162.471 36.9512V38.5122H160.91V36.9512H162.471ZM162.471 32.2683V33.8293H160.91V32.2683H162.471ZM162.471 30.7073V32.2683H160.91V30.7073H162.471ZM162.471 29.1463V30.7073H160.91V29.1463H162.471ZM162.471 27.5854V29.1463H160.91V27.5854H162.471ZM162.471 26.0244V27.5854H160.91V26.0244H162.471ZM157.788 26.0244V27.5854H156.227V26.0244H157.788ZM159.349 26.0244V27.5854H157.788V26.0244H159.349ZM159.349 27.5854V29.1463H157.788V27.5854H159.349ZM159.349 29.1463V30.7073H157.788V29.1463H159.349ZM159.349 30.7073V32.2683H157.788V30.7073H159.349ZM159.349 32.2683V33.8293H157.788V32.2683H159.349ZM159.349 33.8293V35.3902H157.788V33.8293H159.349ZM159.349 35.3902V36.9512H157.788V35.3902H159.349ZM159.349 36.9512V38.5122H157.788V36.9512H159.349ZM160.91 35.3902V36.9512H159.349V35.3902H160.91ZM160.91 33.8293V35.3902H159.349V33.8293H160.91ZM145.3 49.439V51H143.739V49.439H145.3ZM146.861 49.439V51H145.3V49.439H146.861ZM148.422 49.439V51H146.861V49.439H148.422ZM149.983 49.439V51H148.422V49.439H149.983ZM153.105 49.439V51H151.544V49.439H153.105ZM154.666 49.439V51H153.105V49.439H154.666ZM154.666 47.878V49.439H153.105V47.878H154.666ZM153.105 47.878V49.439H151.544V47.878H153.105ZM149.983 47.878V49.439H148.422V47.878H149.983ZM148.422 47.878V49.439H146.861V47.878H148.422ZM146.861 47.878V49.439H145.3V47.878H146.861ZM145.3 47.878V49.439H143.739V47.878H145.3ZM145.3 46.3171V47.878H143.739V46.3171H145.3ZM146.861 46.3171V47.878H145.3V46.3171H146.861ZM148.422 46.3171V47.878H146.861V46.3171H148.422ZM149.983 46.3171V47.878H148.422V46.3171H149.983ZM153.105 46.3171V47.878H151.544V46.3171H153.105ZM154.666 46.3171V47.878H153.105V46.3171H154.666ZM154.666 44.7561V46.3171H153.105V44.7561H154.666ZM153.105 44.7561V46.3171H151.544V44.7561H153.105ZM149.983 44.7561V46.3171H148.422V44.7561H149.983ZM148.422 44.7561V46.3171H146.861V44.7561H148.422ZM146.861 44.7561V46.3171H145.3V44.7561H146.861ZM145.3 44.7561V46.3171H143.739V44.7561H145.3ZM145.3 43.1951V44.7561H143.739V43.1951H145.3ZM154.666 43.1951V44.7561H153.105V43.1951H154.666ZM160.91 19.7805V18.2195H162.471V19.7805H160.91ZM160.91 21.3415V19.7805H162.471V21.3415H160.91ZM160.91 22.9024V21.3415H162.471V22.9024H160.91ZM157.788 22.9024V21.3415H159.349V22.9024H157.788ZM157.788 21.3415V19.7805H159.349V21.3415H157.788ZM157.788 19.7805V18.2195H159.349V19.7805H157.788ZM157.788 18.2195V16.6585H159.349V18.2195H157.788ZM157.788 16.6585V15.0976H159.349V16.6585H157.788ZM157.788 15.0976V13.5366H159.349V15.0976H157.788ZM154.666 13.5366V11.9756H156.227V13.5366H154.666ZM154.666 15.0976V13.5366H156.227V15.0976H154.666ZM154.666 16.6585V15.0976H156.227V16.6585H154.666ZM154.666 18.2195V16.6585H156.227V18.2195H154.666ZM154.666 19.7805V18.2195H156.227V19.7805H154.666ZM154.666 21.3415V19.7805H156.227V21.3415H154.666ZM154.666 22.9024V21.3415H156.227V22.9024H154.666ZM156.227 22.9024V21.3415H157.788V22.9024H156.227ZM156.227 21.3415V19.7805H157.788V21.3415H156.227ZM156.227 19.7805V18.2195H157.788V19.7805H156.227ZM156.227 18.2195V16.6585H157.788V18.2195H156.227ZM156.227 16.6585V15.0976H157.788V16.6585H156.227ZM156.227 15.0976V13.5366H157.788V15.0976H156.227ZM159.349 16.6585V15.0976H160.91V16.6585H159.349ZM159.349 18.2195V16.6585H160.91V18.2195H159.349ZM159.349 19.7805V18.2195H160.91V19.7805H159.349ZM159.349 21.3415V19.7805H160.91V21.3415H159.349ZM159.349 22.9024V21.3415H160.91V22.9024H159.349ZM142.178 13.5366V11.9756H143.739V13.5366H142.178ZM142.178 15.0976V13.5366H143.739V15.0976H142.178ZM142.178 16.6585V15.0976H143.739V16.6585H142.178ZM142.178 18.2195V16.6585H143.739V18.2195H142.178ZM142.178 19.7805V18.2195H143.739V19.7805H142.178ZM142.178 21.3415V19.7805H143.739V21.3415H142.178ZM142.178 22.9024V21.3415H143.739V22.9024H142.178ZM139.056 22.9024V21.3415H140.617V22.9024H139.056ZM139.056 21.3415V19.7805H140.617V21.3415H139.056ZM139.056 19.7805V18.2195H140.617V19.7805H139.056ZM139.056 18.2195V16.6585H140.617V18.2195H139.056ZM139.056 16.6585V15.0976H140.617V16.6585H139.056ZM139.056 15.0976V13.5366H140.617V15.0976H139.056ZM135.934 19.7805V18.2195H137.495V19.7805H135.934ZM135.934 21.3415V19.7805H137.495V21.3415H135.934ZM135.934 22.9024V21.3415H137.495V22.9024H135.934ZM137.495 22.9024V21.3415H139.056V22.9024H137.495ZM137.495 21.3415V19.7805H139.056V21.3415H137.495ZM137.495 19.7805V18.2195H139.056V19.7805H137.495ZM137.495 18.2195V16.6585H139.056V18.2195H137.495ZM137.495 16.6585V15.0976H139.056V16.6585H137.495ZM140.617 15.0976V13.5366H142.178V15.0976H140.617ZM140.617 16.6585V15.0976H142.178V16.6585H140.617ZM140.617 18.2195V16.6585H142.178V18.2195H140.617ZM140.617 19.7805V18.2195H142.178V19.7805H140.617ZM140.617 21.3415V19.7805H142.178V21.3415H140.617ZM140.617 22.9024V21.3415H142.178V22.9024H140.617ZM153.105 13.5366V11.9756H154.666V13.5366H153.105ZM151.544 13.5366V11.9756H153.105V13.5366H151.544ZM148.422 13.5366V11.9756H149.983V13.5366H148.422ZM146.861 13.5366V11.9756H148.422V13.5366H146.861ZM145.3 13.5366V11.9756H146.861V13.5366H145.3ZM143.739 13.5366V11.9756H145.3V13.5366H143.739ZM143.739 15.0976V13.5366H145.3V15.0976H143.739ZM145.3 15.0976V13.5366H146.861V15.0976H145.3ZM146.861 15.0976V13.5366H148.422V15.0976H146.861ZM148.422 15.0976V13.5366H149.983V15.0976H148.422ZM151.544 15.0976V13.5366H153.105V15.0976H151.544ZM153.105 15.0976V13.5366H154.666V15.0976H153.105ZM153.105 16.6585V15.0976H154.666V16.6585H153.105ZM151.544 16.6585V15.0976H153.105V16.6585H151.544ZM148.422 16.6585V15.0976H149.983V16.6585H148.422ZM146.861 16.6585V15.0976H148.422V16.6585H146.861ZM145.3 16.6585V15.0976H146.861V16.6585H145.3ZM143.739 16.6585V15.0976H145.3V16.6585H143.739ZM143.739 18.2195V16.6585H145.3V18.2195H143.739ZM145.3 18.2195V16.6585H146.861V18.2195H145.3ZM146.861 18.2195V16.6585H148.422V18.2195H146.861ZM148.422 18.2195V16.6585H149.983V18.2195H148.422ZM151.544 18.2195V16.6585H153.105V18.2195H151.544ZM153.105 18.2195V16.6585H154.666V18.2195H153.105ZM153.105 19.7805V18.2195H154.666V19.7805H153.105ZM143.739 19.7805V18.2195H145.3V19.7805H143.739ZM137.495 24.4634V26.0244H135.934V24.4634H137.495ZM139.056 24.4634V26.0244H137.495V24.4634H139.056ZM137.495 22.9024V24.4634H135.934V22.9024H137.495ZM142.178 22.9024V24.4634H140.617V22.9024H142.178ZM142.178 24.4634V26.0244H140.617V24.4634H142.178ZM143.739 24.4634V26.0244H142.178V24.4634H143.739ZM143.739 22.9024V24.4634H142.178V22.9024H143.739ZM139.056 22.9024V24.4634H137.495V22.9024H139.056ZM140.617 22.9024V24.4634H139.056V22.9024H140.617ZM140.617 24.4634V26.0244H139.056V24.4634H140.617ZM156.227 24.4634V26.0244H154.666V24.4634H156.227ZM157.788 24.4634V26.0244H156.227V24.4634H157.788ZM156.227 22.9024V24.4634H154.666V22.9024H156.227ZM160.91 22.9024V24.4634H159.349V22.9024H160.91ZM160.91 24.4634V26.0244H159.349V24.4634H160.91ZM162.471 24.4634V26.0244H160.91V24.4634H162.471ZM162.471 22.9024V24.4634H160.91V22.9024H162.471ZM157.788 22.9024V24.4634H156.227V22.9024H157.788ZM159.349 22.9024V24.4634H157.788V22.9024H159.349ZM159.349 24.4634V26.0244H157.788V24.4634H159.349ZM146.861 43.1951V44.7561H145.3V43.1951H146.861ZM148.422 43.1951V44.7561H146.861V43.1951H148.422ZM149.983 43.1951V44.7561H148.422V43.1951H149.983ZM153.105 43.1951V44.7561H151.544V43.1951H153.105ZM154.666 41.6341V43.1951H153.105V41.6341H154.666ZM145.3 41.6341V43.1951H143.739V41.6341H145.3ZM146.861 18.2195V19.7805H145.3V18.2195H146.861ZM148.422 18.2195V19.7805H146.861V18.2195H148.422ZM149.983 18.2195V19.7805H148.422V18.2195H149.983ZM153.105 18.2195V19.7805H151.544V18.2195H153.105ZM154.666 19.7805V21.3415H153.105V19.7805H154.666ZM145.3 19.7805V21.3415H143.739V19.7805H145.3ZM151.544 11.9756V13.5366H149.983V11.9756H151.544ZM151.544 13.5366V15.0976H149.983V13.5366H151.544ZM151.544 15.0976V16.6585H149.983V15.0976H151.544ZM151.544 16.6585V18.2195H149.983V16.6585H151.544ZM151.544 18.2195V19.7805H149.983V18.2195H151.544ZM151.544 43.1951V44.7561H149.983V43.1951H151.544ZM151.544 44.7561V46.3171H149.983V44.7561H151.544ZM151.544 46.3171V47.878H149.983V46.3171H151.544ZM151.544 47.878V49.439H149.983V47.878H151.544ZM151.544 49.439V51H149.983V49.439H151.544ZM170.245 43.1951V44.7561H168.684V43.1951H170.245ZM170.245 41.6341V43.1951H168.684V41.6341H170.245ZM170.245 40.0732V41.6341H168.684V40.0732H170.245ZM170.245 38.5122V40.0732H168.684V38.5122H170.245ZM170.245 36.9512V38.5122H168.684V36.9512H170.245ZM170.245 35.3902V36.9512H168.684V35.3902H170.245ZM170.245 33.8293V35.3902H168.684V33.8293H170.245ZM170.245 32.2683V33.8293H168.684V32.2683H170.245ZM170.245 30.7073V32.2683H168.684V30.7073H170.245ZM170.245 29.1463V30.7073H168.684V29.1463H170.245ZM170.245 27.5854V29.1463H168.684V27.5854H170.245ZM171.806 27.5854V29.1463H170.245V27.5854H171.806ZM171.806 29.1463V30.7073H170.245V29.1463H171.806ZM171.806 30.7073V32.2683H170.245V30.7073H171.806ZM171.806 32.2683V33.8293H170.245V32.2683H171.806ZM171.806 33.8293V35.3902H170.245V33.8293H171.806ZM171.806 35.3902V36.9512H170.245V35.3902H171.806ZM171.806 36.9512V38.5122H170.245V36.9512H171.806ZM173.367 38.5122V40.0732H171.806V38.5122H173.367ZM173.367 40.0732V41.6341H171.806V40.0732H173.367ZM173.367 41.6341V43.1951H171.806V41.6341H173.367ZM173.367 43.1951V44.7561H171.806V43.1951H173.367ZM173.367 44.7561V46.3171H171.806V44.7561H173.367ZM173.367 46.3171V47.878H171.806V46.3171H173.367ZM173.367 47.878V49.439H171.806V47.878H173.367ZM176.489 49.439V51H174.928V49.439H176.489ZM176.489 47.878V49.439H174.928V47.878H176.489ZM176.489 46.3171V47.878H174.928V46.3171H176.489ZM176.489 44.7561V46.3171H174.928V44.7561H176.489ZM176.489 43.1951V44.7561H174.928V43.1951H176.489ZM176.489 41.6341V43.1951H174.928V41.6341H176.489ZM176.489 40.0732V41.6341H174.928V40.0732H176.489ZM176.489 38.5122V40.0732H174.928V38.5122H176.489ZM174.928 38.5122V40.0732H173.367V38.5122H174.928ZM174.928 36.9512V38.5122H173.367V36.9512H174.928ZM174.928 40.0732V41.6341H173.367V40.0732H174.928ZM174.928 41.6341V43.1951H173.367V41.6341H174.928ZM174.928 43.1951V44.7561H173.367V43.1951H174.928ZM174.928 44.7561V46.3171H173.367V44.7561H174.928ZM174.928 46.3171V47.878H173.367V46.3171H174.928ZM174.928 47.878V49.439H173.367V47.878H174.928ZM171.806 46.3171V47.878H170.245V46.3171H171.806ZM171.806 44.7561V46.3171H170.245V44.7561H171.806ZM171.806 43.1951V44.7561H170.245V43.1951H171.806ZM171.806 41.6341V43.1951H170.245V41.6341H171.806ZM171.806 40.0732V41.6341H170.245V40.0732H171.806ZM171.806 38.5122V40.0732H170.245V38.5122H171.806ZM170.245 26.0244V27.5854H168.684V26.0244H170.245ZM174.928 26.0244V27.5854H173.367V26.0244H174.928ZM174.928 27.5854V29.1463H173.367V27.5854H174.928ZM174.928 29.1463V30.7073H173.367V29.1463H174.928ZM174.928 30.7073V32.2683H173.367V30.7073H174.928ZM174.928 32.2683V33.8293H173.367V32.2683H174.928ZM176.489 33.8293V35.3902H174.928V33.8293H176.489ZM176.489 35.3902V36.9512H174.928V35.3902H176.489ZM176.489 36.9512V38.5122H174.928V36.9512H176.489ZM176.489 32.2683V33.8293H174.928V32.2683H176.489ZM176.489 30.7073V32.2683H174.928V30.7073H176.489ZM176.489 29.1463V30.7073H174.928V29.1463H176.489ZM176.489 27.5854V29.1463H174.928V27.5854H176.489ZM176.489 26.0244V27.5854H174.928V26.0244H176.489ZM171.806 26.0244V27.5854H170.245V26.0244H171.806ZM173.367 26.0244V27.5854H171.806V26.0244H173.367ZM173.367 27.5854V29.1463H171.806V27.5854H173.367ZM173.367 29.1463V30.7073H171.806V29.1463H173.367ZM173.367 30.7073V32.2683H171.806V30.7073H173.367ZM173.367 32.2683V33.8293H171.806V32.2683H173.367ZM173.367 33.8293V35.3902H171.806V33.8293H173.367ZM173.367 35.3902V36.9512H171.806V35.3902H173.367ZM173.367 36.9512V38.5122H171.806V36.9512H173.367ZM174.928 35.3902V36.9512H173.367V35.3902H174.928ZM174.928 33.8293V35.3902H173.367V33.8293H174.928ZM188.977 49.439V51H187.416V49.439H188.977ZM188.977 47.878V49.439H187.416V47.878H188.977ZM188.977 46.3171V47.878H187.416V46.3171H188.977ZM188.977 44.7561V46.3171H187.416V44.7561H188.977ZM188.977 43.1951V44.7561H187.416V43.1951H188.977ZM188.977 41.6341V43.1951H187.416V41.6341H188.977ZM188.977 40.0732V41.6341H187.416V40.0732H188.977ZM192.099 40.0732V41.6341H190.538V40.0732H192.099ZM192.099 41.6341V43.1951H190.538V41.6341H192.099ZM192.099 43.1951V44.7561H190.538V43.1951H192.099ZM192.099 44.7561V46.3171H190.538V44.7561H192.099ZM192.099 46.3171V47.878H190.538V46.3171H192.099ZM192.099 47.878V49.439H190.538V47.878H192.099ZM195.221 43.1951V44.7561H193.66V43.1951H195.221ZM195.221 41.6341V43.1951H193.66V41.6341H195.221ZM195.221 40.0732V41.6341H193.66V40.0732H195.221ZM193.66 40.0732V41.6341H192.099V40.0732H193.66ZM193.66 41.6341V43.1951H192.099V41.6341H193.66ZM193.66 43.1951V44.7561H192.099V43.1951H193.66ZM193.66 44.7561V46.3171H192.099V44.7561H193.66ZM193.66 46.3171V47.878H192.099V46.3171H193.66ZM190.538 47.878V49.439H188.977V47.878H190.538ZM190.538 46.3171V47.878H188.977V46.3171H190.538ZM190.538 44.7561V46.3171H188.977V44.7561H190.538ZM190.538 43.1951V44.7561H188.977V43.1951H190.538ZM190.538 41.6341V43.1951H188.977V41.6341H190.538ZM190.538 40.0732V41.6341H188.977V40.0732H190.538ZM178.05 49.439V51H176.489V49.439H178.05ZM179.611 49.439V51H178.05V49.439H179.611ZM181.172 49.439V51H179.611V49.439H181.172ZM182.733 49.439V51H181.172V49.439H182.733ZM185.855 49.439V51H184.294V49.439H185.855ZM187.416 49.439V51H185.855V49.439H187.416ZM187.416 47.878V49.439H185.855V47.878H187.416ZM185.855 47.878V49.439H184.294V47.878H185.855ZM182.733 47.878V49.439H181.172V47.878H182.733ZM181.172 47.878V49.439H179.611V47.878H181.172ZM179.611 47.878V49.439H178.05V47.878H179.611ZM178.05 47.878V49.439H176.489V47.878H178.05ZM178.05 46.3171V47.878H176.489V46.3171H178.05ZM179.611 46.3171V47.878H178.05V46.3171H179.611ZM181.172 46.3171V47.878H179.611V46.3171H181.172ZM182.733 46.3171V47.878H181.172V46.3171H182.733ZM185.855 46.3171V47.878H184.294V46.3171H185.855ZM187.416 46.3171V47.878H185.855V46.3171H187.416ZM187.416 44.7561V46.3171H185.855V44.7561H187.416ZM185.855 44.7561V46.3171H184.294V44.7561H185.855ZM182.733 44.7561V46.3171H181.172V44.7561H182.733ZM181.172 44.7561V46.3171H179.611V44.7561H181.172ZM179.611 44.7561V46.3171H178.05V44.7561H179.611ZM178.05 44.7561V46.3171H176.489V44.7561H178.05ZM178.05 43.1951V44.7561H176.489V43.1951H178.05ZM187.416 43.1951V44.7561H185.855V43.1951H187.416ZM193.66 19.7805V18.2195H195.221V19.7805H193.66ZM193.66 21.3415V19.7805H195.221V21.3415H193.66ZM193.66 22.9024V21.3415H195.221V22.9024H193.66ZM190.538 22.9024V21.3415H192.099V22.9024H190.538ZM190.538 21.3415V19.7805H192.099V21.3415H190.538ZM190.538 19.7805V18.2195H192.099V19.7805H190.538ZM190.538 18.2195V16.6585H192.099V18.2195H190.538ZM190.538 16.6585V15.0976H192.099V16.6585H190.538ZM190.538 15.0976V13.5366H192.099V15.0976H190.538ZM187.416 13.5366V11.9756H188.977V13.5366H187.416ZM187.416 15.0976V13.5366H188.977V15.0976H187.416ZM187.416 16.6585V15.0976H188.977V16.6585H187.416ZM187.416 18.2195V16.6585H188.977V18.2195H187.416ZM187.416 19.7805V18.2195H188.977V19.7805H187.416ZM187.416 21.3415V19.7805H188.977V21.3415H187.416ZM187.416 22.9024V21.3415H188.977V22.9024H187.416ZM188.977 22.9024V21.3415H190.538V22.9024H188.977ZM188.977 21.3415V19.7805H190.538V21.3415H188.977ZM188.977 19.7805V18.2195H190.538V19.7805H188.977ZM188.977 18.2195V16.6585H190.538V18.2195H188.977ZM188.977 16.6585V15.0976H190.538V16.6585H188.977ZM188.977 15.0976V13.5366H190.538V15.0976H188.977ZM192.099 16.6585V15.0976H193.66V16.6585H192.099ZM192.099 18.2195V16.6585H193.66V18.2195H192.099ZM192.099 19.7805V18.2195H193.66V19.7805H192.099ZM192.099 21.3415V19.7805H193.66V21.3415H192.099ZM192.099 22.9024V21.3415H193.66V22.9024H192.099ZM174.928 13.5366V11.9756H176.489V13.5366H174.928ZM174.928 15.0976V13.5366H176.489V15.0976H174.928ZM174.928 16.6585V15.0976H176.489V16.6585H174.928ZM174.928 18.2195V16.6585H176.489V18.2195H174.928ZM174.928 19.7805V18.2195H176.489V19.7805H174.928ZM174.928 21.3415V19.7805H176.489V21.3415H174.928ZM174.928 22.9024V21.3415H176.489V22.9024H174.928ZM171.806 22.9024V21.3415H173.367V22.9024H171.806ZM171.806 21.3415V19.7805H173.367V21.3415H171.806ZM171.806 19.7805V18.2195H173.367V19.7805H171.806ZM171.806 18.2195V16.6585H173.367V18.2195H171.806ZM171.806 16.6585V15.0976H173.367V16.6585H171.806ZM171.806 15.0976V13.5366H173.367V15.0976H171.806ZM168.684 19.7805V18.2195H170.245V19.7805H168.684ZM168.684 21.3415V19.7805H170.245V21.3415H168.684ZM168.684 22.9024V21.3415H170.245V22.9024H168.684ZM170.245 22.9024V21.3415H171.806V22.9024H170.245ZM170.245 21.3415V19.7805H171.806V21.3415H170.245ZM170.245 19.7805V18.2195H171.806V19.7805H170.245ZM170.245 18.2195V16.6585H171.806V18.2195H170.245ZM170.245 16.6585V15.0976H171.806V16.6585H170.245ZM173.367 15.0976V13.5366H174.928V15.0976H173.367ZM173.367 16.6585V15.0976H174.928V16.6585H173.367ZM173.367 18.2195V16.6585H174.928V18.2195H173.367ZM173.367 19.7805V18.2195H174.928V19.7805H173.367ZM173.367 21.3415V19.7805H174.928V21.3415H173.367ZM173.367 22.9024V21.3415H174.928V22.9024H173.367ZM185.855 13.5366V11.9756H187.416V13.5366H185.855ZM184.294 13.5366V11.9756H185.855V13.5366H184.294ZM181.172 13.5366V11.9756H182.733V13.5366H181.172ZM179.611 13.5366V11.9756H181.172V13.5366H179.611ZM178.05 13.5366V11.9756H179.611V13.5366H178.05ZM176.489 13.5366V11.9756H178.05V13.5366H176.489ZM176.489 15.0976V13.5366H178.05V15.0976H176.489ZM178.05 15.0976V13.5366H179.611V15.0976H178.05ZM179.611 15.0976V13.5366H181.172V15.0976H179.611ZM181.172 15.0976V13.5366H182.733V15.0976H181.172ZM184.294 15.0976V13.5366H185.855V15.0976H184.294ZM185.855 15.0976V13.5366H187.416V15.0976H185.855ZM185.855 16.6585V15.0976H187.416V16.6585H185.855ZM184.294 16.6585V15.0976H185.855V16.6585H184.294ZM181.172 16.6585V15.0976H182.733V16.6585H181.172ZM179.611 16.6585V15.0976H181.172V16.6585H179.611ZM178.05 16.6585V15.0976H179.611V16.6585H178.05ZM176.489 16.6585V15.0976H178.05V16.6585H176.489ZM176.489 18.2195V16.6585H178.05V18.2195H176.489ZM178.05 18.2195V16.6585H179.611V18.2195H178.05ZM179.611 18.2195V16.6585H181.172V18.2195H179.611ZM181.172 18.2195V16.6585H182.733V18.2195H181.172ZM184.294 18.2195V16.6585H185.855V18.2195H184.294ZM185.855 18.2195V16.6585H187.416V18.2195H185.855ZM185.855 19.7805V18.2195H187.416V19.7805H185.855ZM176.489 19.7805V18.2195H178.05V19.7805H176.489ZM170.245 24.4634V26.0244H168.684V24.4634H170.245ZM171.806 24.4634V26.0244H170.245V24.4634H171.806ZM170.245 22.9024V24.4634H168.684V22.9024H170.245ZM174.928 22.9024V24.4634H173.367V22.9024H174.928ZM174.928 24.4634V26.0244H173.367V24.4634H174.928ZM176.489 24.4634V26.0244H174.928V24.4634H176.489ZM176.489 22.9024V24.4634H174.928V22.9024H176.489ZM171.806 22.9024V24.4634H170.245V22.9024H171.806ZM173.367 22.9024V24.4634H171.806V22.9024H173.367ZM173.367 24.4634V26.0244H171.806V24.4634H173.367ZM182.733 29.1463V30.7073H181.172V29.1463H182.733ZM182.733 30.7073V32.2683H181.172V30.7073H182.733ZM185.855 30.7073V32.2683H184.294V30.7073H185.855ZM187.416 30.7073V32.2683H185.855V30.7073H187.416ZM188.977 30.7073V32.2683H187.416V30.7073H188.977ZM190.538 30.7073V32.2683H188.977V30.7073H190.538ZM192.099 30.7073V32.2683H190.538V30.7073H192.099ZM193.66 30.7073V32.2683H192.099V30.7073H193.66ZM195.221 29.1463V30.7073H193.66V29.1463H195.221ZM193.66 29.1463V30.7073H192.099V29.1463H193.66ZM192.099 29.1463V30.7073H190.538V29.1463H192.099ZM190.538 29.1463V30.7073H188.977V29.1463H190.538ZM188.977 29.1463V30.7073H187.416V29.1463H188.977ZM187.416 29.1463V30.7073H185.855V29.1463H187.416ZM185.855 29.1463V30.7073H184.294V29.1463H185.855ZM195.221 30.7073V32.2683H193.66V30.7073H195.221ZM195.221 32.2683V33.8293H193.66V32.2683H195.221ZM195.221 33.8293V35.3902H193.66V33.8293H195.221ZM195.221 35.3902V36.9512H193.66V35.3902H195.221ZM195.221 36.9512V38.5122H193.66V36.9512H195.221ZM195.221 38.5122V40.0732H193.66V38.5122H195.221ZM193.66 38.5122V40.0732H192.099V38.5122H193.66ZM192.099 38.5122V40.0732H190.538V38.5122H192.099ZM190.538 38.5122V40.0732H188.977V38.5122H190.538ZM188.977 38.5122V40.0732H187.416V38.5122H188.977ZM188.977 36.9512V38.5122H187.416V36.9512H188.977ZM190.538 36.9512V38.5122H188.977V36.9512H190.538ZM192.099 36.9512V38.5122H190.538V36.9512H192.099ZM193.66 36.9512V38.5122H192.099V36.9512H193.66ZM193.66 35.3902V36.9512H192.099V35.3902H193.66ZM192.099 35.3902V36.9512H190.538V35.3902H192.099ZM190.538 35.3902V36.9512H188.977V35.3902H190.538ZM188.977 35.3902V36.9512H187.416V35.3902H188.977ZM182.733 32.2683V33.8293H181.172V32.2683H182.733ZM182.733 33.8293V35.3902H181.172V33.8293H182.733ZM185.855 33.8293V35.3902H184.294V33.8293H185.855ZM187.416 33.8293V35.3902H185.855V33.8293H187.416ZM188.977 33.8293V35.3902H187.416V33.8293H188.977ZM190.538 33.8293V35.3902H188.977V33.8293H190.538ZM192.099 33.8293V35.3902H190.538V33.8293H192.099ZM193.66 33.8293V35.3902H192.099V33.8293H193.66ZM193.66 32.2683V33.8293H192.099V32.2683H193.66ZM192.099 32.2683V33.8293H190.538V32.2683H192.099ZM190.538 32.2683V33.8293H188.977V32.2683H190.538ZM188.977 32.2683V33.8293H187.416V32.2683H188.977ZM187.416 32.2683V33.8293H185.855V32.2683H187.416ZM185.855 32.2683V33.8293H184.294V32.2683H185.855ZM179.611 43.1951V44.7561H178.05V43.1951H179.611ZM181.172 43.1951V44.7561H179.611V43.1951H181.172ZM182.733 43.1951V44.7561H181.172V43.1951H182.733ZM185.855 43.1951V44.7561H184.294V43.1951H185.855ZM187.416 41.6341V43.1951H185.855V41.6341H187.416ZM178.05 41.6341V43.1951H176.489V41.6341H178.05ZM179.611 18.2195V19.7805H178.05V18.2195H179.611ZM181.172 18.2195V19.7805H179.611V18.2195H181.172ZM182.733 18.2195V19.7805H181.172V18.2195H182.733ZM185.855 18.2195V19.7805H184.294V18.2195H185.855ZM178.05 19.7805V21.3415H176.489V19.7805H178.05ZM187.416 19.7805V21.3415H185.855V19.7805H187.416ZM188.977 22.9024V24.4634H187.416V22.9024H188.977ZM190.538 22.9024V24.4634H188.977V22.9024H190.538ZM192.099 22.9024V24.4634H190.538V22.9024H192.099ZM193.66 22.9024V24.4634H192.099V22.9024H193.66ZM195.221 22.9024V24.4634H193.66V22.9024H195.221ZM182.733 35.3902V36.9512H181.172V35.3902H182.733ZM185.855 35.3902V36.9512H184.294V35.3902H185.855ZM187.416 35.3902V36.9512H185.855V35.3902H187.416ZM184.294 11.9756V13.5366H182.733V11.9756H184.294ZM184.294 13.5366V15.0976H182.733V13.5366H184.294ZM184.294 15.0976V16.6585H182.733V15.0976H184.294ZM184.294 16.6585V18.2195H182.733V16.6585H184.294ZM184.294 18.2195V19.7805H182.733V18.2195H184.294ZM184.294 29.1463V30.7073H182.733V29.1463H184.294ZM184.294 30.7073V32.2683H182.733V30.7073H184.294ZM184.294 32.2683V33.8293H182.733V32.2683H184.294ZM184.294 33.8293V35.3902H182.733V33.8293H184.294ZM184.294 35.3902V36.9512H182.733V35.3902H184.294ZM184.294 43.1951V44.7561H182.733V43.1951H184.294ZM184.294 44.7561V46.3171H182.733V44.7561H184.294ZM184.294 46.3171V47.878H182.733V46.3171H184.294ZM184.294 47.878V49.439H182.733V47.878H184.294ZM184.294 49.439V51H182.733V49.439H184.294Z" fill="#3465ED"/>
</svg>
